%TF.GenerationSoftware,KiCad,Pcbnew,(6.0.1)*%
%TF.CreationDate,2022-04-25T14:18:17+03:00*%
%TF.ProjectId,fcb,6663622e-6b69-4636-9164-5f7063625858,0*%
%TF.SameCoordinates,Original*%
%TF.FileFunction,Legend,Top*%
%TF.FilePolarity,Positive*%
%FSLAX46Y46*%
G04 Gerber Fmt 4.6, Leading zero omitted, Abs format (unit mm)*
G04 Created by KiCad (PCBNEW (6.0.1)) date 2022-04-25 14:18:17*
%MOMM*%
%LPD*%
G01*
G04 APERTURE LIST*
%ADD10C,0.150000*%
%ADD11C,0.120000*%
%ADD12C,0.161803*%
%ADD13C,0.100000*%
%ADD14C,0.254000*%
G04 APERTURE END LIST*
D10*
X152200000Y-89800000D02*
G75*
G03*
X152200000Y-89800000I-200000J0D01*
G01*
X167452380Y-119738095D02*
X166452380Y-119738095D01*
X166452380Y-119357142D01*
X166500000Y-119261904D01*
X166547619Y-119214285D01*
X166642857Y-119166666D01*
X166785714Y-119166666D01*
X166880952Y-119214285D01*
X166928571Y-119261904D01*
X166976190Y-119357142D01*
X166976190Y-119738095D01*
X166928571Y-118404761D02*
X166976190Y-118261904D01*
X167023809Y-118214285D01*
X167119047Y-118166666D01*
X167261904Y-118166666D01*
X167357142Y-118214285D01*
X167404761Y-118261904D01*
X167452380Y-118357142D01*
X167452380Y-118738095D01*
X166452380Y-118738095D01*
X166452380Y-118404761D01*
X166500000Y-118309523D01*
X166547619Y-118261904D01*
X166642857Y-118214285D01*
X166738095Y-118214285D01*
X166833333Y-118261904D01*
X166880952Y-118309523D01*
X166928571Y-118404761D01*
X166928571Y-118738095D01*
X167452380Y-117690476D02*
X167452380Y-117500000D01*
X167404761Y-117404761D01*
X167357142Y-117357142D01*
X167214285Y-117261904D01*
X167023809Y-117214285D01*
X166642857Y-117214285D01*
X166547619Y-117261904D01*
X166500000Y-117309523D01*
X166452380Y-117404761D01*
X166452380Y-117595238D01*
X166500000Y-117690476D01*
X166547619Y-117738095D01*
X166642857Y-117785714D01*
X166880952Y-117785714D01*
X166976190Y-117738095D01*
X167023809Y-117690476D01*
X167071428Y-117595238D01*
X167071428Y-117404761D01*
X167023809Y-117309523D01*
X166976190Y-117261904D01*
X166880952Y-117214285D01*
X126761904Y-119452380D02*
X126761904Y-118452380D01*
X127142857Y-118452380D01*
X127238095Y-118500000D01*
X127285714Y-118547619D01*
X127333333Y-118642857D01*
X127333333Y-118785714D01*
X127285714Y-118880952D01*
X127238095Y-118928571D01*
X127142857Y-118976190D01*
X126761904Y-118976190D01*
X128095238Y-118928571D02*
X128238095Y-118976190D01*
X128285714Y-119023809D01*
X128333333Y-119119047D01*
X128333333Y-119261904D01*
X128285714Y-119357142D01*
X128238095Y-119404761D01*
X128142857Y-119452380D01*
X127761904Y-119452380D01*
X127761904Y-118452380D01*
X128095238Y-118452380D01*
X128190476Y-118500000D01*
X128238095Y-118547619D01*
X128285714Y-118642857D01*
X128285714Y-118738095D01*
X128238095Y-118833333D01*
X128190476Y-118880952D01*
X128095238Y-118928571D01*
X127761904Y-118928571D01*
X128904761Y-118880952D02*
X128809523Y-118833333D01*
X128761904Y-118785714D01*
X128714285Y-118690476D01*
X128714285Y-118642857D01*
X128761904Y-118547619D01*
X128809523Y-118500000D01*
X128904761Y-118452380D01*
X129095238Y-118452380D01*
X129190476Y-118500000D01*
X129238095Y-118547619D01*
X129285714Y-118642857D01*
X129285714Y-118690476D01*
X129238095Y-118785714D01*
X129190476Y-118833333D01*
X129095238Y-118880952D01*
X128904761Y-118880952D01*
X128809523Y-118928571D01*
X128761904Y-118976190D01*
X128714285Y-119071428D01*
X128714285Y-119261904D01*
X128761904Y-119357142D01*
X128809523Y-119404761D01*
X128904761Y-119452380D01*
X129095238Y-119452380D01*
X129190476Y-119404761D01*
X129238095Y-119357142D01*
X129285714Y-119261904D01*
X129285714Y-119071428D01*
X129238095Y-118976190D01*
X129190476Y-118928571D01*
X129095238Y-118880952D01*
X126285714Y-116452380D02*
X126285714Y-115452380D01*
X126666666Y-115452380D01*
X126761904Y-115500000D01*
X126809523Y-115547619D01*
X126857142Y-115642857D01*
X126857142Y-115785714D01*
X126809523Y-115880952D01*
X126761904Y-115928571D01*
X126666666Y-115976190D01*
X126285714Y-115976190D01*
X127619047Y-115928571D02*
X127761904Y-115976190D01*
X127809523Y-116023809D01*
X127857142Y-116119047D01*
X127857142Y-116261904D01*
X127809523Y-116357142D01*
X127761904Y-116404761D01*
X127666666Y-116452380D01*
X127285714Y-116452380D01*
X127285714Y-115452380D01*
X127619047Y-115452380D01*
X127714285Y-115500000D01*
X127761904Y-115547619D01*
X127809523Y-115642857D01*
X127809523Y-115738095D01*
X127761904Y-115833333D01*
X127714285Y-115880952D01*
X127619047Y-115928571D01*
X127285714Y-115928571D01*
X128809523Y-116452380D02*
X128238095Y-116452380D01*
X128523809Y-116452380D02*
X128523809Y-115452380D01*
X128428571Y-115595238D01*
X128333333Y-115690476D01*
X128238095Y-115738095D01*
X129142857Y-115452380D02*
X129761904Y-115452380D01*
X129428571Y-115833333D01*
X129571428Y-115833333D01*
X129666666Y-115880952D01*
X129714285Y-115928571D01*
X129761904Y-116023809D01*
X129761904Y-116261904D01*
X129714285Y-116357142D01*
X129666666Y-116404761D01*
X129571428Y-116452380D01*
X129285714Y-116452380D01*
X129190476Y-116404761D01*
X129142857Y-116357142D01*
X134511904Y-113202380D02*
X135130952Y-113202380D01*
X134797619Y-113583333D01*
X134940476Y-113583333D01*
X135035714Y-113630952D01*
X135083333Y-113678571D01*
X135130952Y-113773809D01*
X135130952Y-114011904D01*
X135083333Y-114107142D01*
X135035714Y-114154761D01*
X134940476Y-114202380D01*
X134654761Y-114202380D01*
X134559523Y-114154761D01*
X134511904Y-114107142D01*
X135416666Y-113202380D02*
X135750000Y-114202380D01*
X136083333Y-113202380D01*
X136321428Y-113202380D02*
X136940476Y-113202380D01*
X136607142Y-113583333D01*
X136750000Y-113583333D01*
X136845238Y-113630952D01*
X136892857Y-113678571D01*
X136940476Y-113773809D01*
X136940476Y-114011904D01*
X136892857Y-114107142D01*
X136845238Y-114154761D01*
X136750000Y-114202380D01*
X136464285Y-114202380D01*
X136369047Y-114154761D01*
X136321428Y-114107142D01*
X166190476Y-92666666D02*
X166666666Y-92666666D01*
X166095238Y-92952380D02*
X166428571Y-91952380D01*
X166761904Y-92952380D01*
X167095238Y-92952380D02*
X167095238Y-91952380D01*
X168047619Y-91952380D02*
X167571428Y-91952380D01*
X167523809Y-92428571D01*
X167571428Y-92380952D01*
X167666666Y-92333333D01*
X167904761Y-92333333D01*
X168000000Y-92380952D01*
X168047619Y-92428571D01*
X168095238Y-92523809D01*
X168095238Y-92761904D01*
X168047619Y-92857142D01*
X168000000Y-92904761D01*
X167904761Y-92952380D01*
X167666666Y-92952380D01*
X167571428Y-92904761D01*
X167523809Y-92857142D01*
X168285714Y-93047619D02*
X169047619Y-93047619D01*
X169238095Y-92047619D02*
X169285714Y-92000000D01*
X169380952Y-91952380D01*
X169619047Y-91952380D01*
X169714285Y-92000000D01*
X169761904Y-92047619D01*
X169809523Y-92142857D01*
X169809523Y-92238095D01*
X169761904Y-92380952D01*
X169190476Y-92952380D01*
X169809523Y-92952380D01*
X136059523Y-110202380D02*
X135583333Y-110202380D01*
X135535714Y-110678571D01*
X135583333Y-110630952D01*
X135678571Y-110583333D01*
X135916666Y-110583333D01*
X136011904Y-110630952D01*
X136059523Y-110678571D01*
X136107142Y-110773809D01*
X136107142Y-111011904D01*
X136059523Y-111107142D01*
X136011904Y-111154761D01*
X135916666Y-111202380D01*
X135678571Y-111202380D01*
X135583333Y-111154761D01*
X135535714Y-111107142D01*
X136392857Y-110202380D02*
X136726190Y-111202380D01*
X137059523Y-110202380D01*
X167166666Y-89952380D02*
X167166666Y-89476190D01*
X167452380Y-90047619D02*
X166452380Y-89714285D01*
X167452380Y-89380952D01*
X167452380Y-89047619D02*
X166452380Y-89047619D01*
X166452380Y-88666666D02*
X166452380Y-88047619D01*
X166833333Y-88380952D01*
X166833333Y-88238095D01*
X166880952Y-88142857D01*
X166928571Y-88095238D01*
X167023809Y-88047619D01*
X167261904Y-88047619D01*
X167357142Y-88095238D01*
X167404761Y-88142857D01*
X167452380Y-88238095D01*
X167452380Y-88523809D01*
X167404761Y-88619047D01*
X167357142Y-88666666D01*
X166190476Y-101166666D02*
X166666666Y-101166666D01*
X166095238Y-101452380D02*
X166428571Y-100452380D01*
X166761904Y-101452380D01*
X167095238Y-101452380D02*
X167095238Y-100452380D01*
X168047619Y-100452380D02*
X167571428Y-100452380D01*
X167523809Y-100928571D01*
X167571428Y-100880952D01*
X167666666Y-100833333D01*
X167904761Y-100833333D01*
X168000000Y-100880952D01*
X168047619Y-100928571D01*
X168095238Y-101023809D01*
X168095238Y-101261904D01*
X168047619Y-101357142D01*
X168000000Y-101404761D01*
X167904761Y-101452380D01*
X167666666Y-101452380D01*
X167571428Y-101404761D01*
X167523809Y-101357142D01*
X168285714Y-101547619D02*
X169047619Y-101547619D01*
X169809523Y-101452380D02*
X169238095Y-101452380D01*
X169523809Y-101452380D02*
X169523809Y-100452380D01*
X169428571Y-100595238D01*
X169333333Y-100690476D01*
X169238095Y-100738095D01*
X144809523Y-86928571D02*
X145142857Y-86928571D01*
X145285714Y-87452380D02*
X144809523Y-87452380D01*
X144809523Y-86452380D01*
X145285714Y-86452380D01*
X145666666Y-87404761D02*
X145809523Y-87452380D01*
X146047619Y-87452380D01*
X146142857Y-87404761D01*
X146190476Y-87357142D01*
X146238095Y-87261904D01*
X146238095Y-87166666D01*
X146190476Y-87071428D01*
X146142857Y-87023809D01*
X146047619Y-86976190D01*
X145857142Y-86928571D01*
X145761904Y-86880952D01*
X145714285Y-86833333D01*
X145666666Y-86738095D01*
X145666666Y-86642857D01*
X145714285Y-86547619D01*
X145761904Y-86500000D01*
X145857142Y-86452380D01*
X146095238Y-86452380D01*
X146238095Y-86500000D01*
X147238095Y-87357142D02*
X147190476Y-87404761D01*
X147047619Y-87452380D01*
X146952380Y-87452380D01*
X146809523Y-87404761D01*
X146714285Y-87309523D01*
X146666666Y-87214285D01*
X146619047Y-87023809D01*
X146619047Y-86880952D01*
X146666666Y-86690476D01*
X146714285Y-86595238D01*
X146809523Y-86500000D01*
X146952380Y-86452380D01*
X147047619Y-86452380D01*
X147190476Y-86500000D01*
X147238095Y-86547619D01*
X141952380Y-115952380D02*
X141619047Y-115476190D01*
X141380952Y-115952380D02*
X141380952Y-114952380D01*
X141761904Y-114952380D01*
X141857142Y-115000000D01*
X141904761Y-115047619D01*
X141952380Y-115142857D01*
X141952380Y-115285714D01*
X141904761Y-115380952D01*
X141857142Y-115428571D01*
X141761904Y-115476190D01*
X141380952Y-115476190D01*
X142333333Y-115904761D02*
X142476190Y-115952380D01*
X142714285Y-115952380D01*
X142809523Y-115904761D01*
X142857142Y-115857142D01*
X142904761Y-115761904D01*
X142904761Y-115666666D01*
X142857142Y-115571428D01*
X142809523Y-115523809D01*
X142714285Y-115476190D01*
X142523809Y-115428571D01*
X142428571Y-115380952D01*
X142380952Y-115333333D01*
X142333333Y-115238095D01*
X142333333Y-115142857D01*
X142380952Y-115047619D01*
X142428571Y-115000000D01*
X142523809Y-114952380D01*
X142761904Y-114952380D01*
X142904761Y-115000000D01*
X143190476Y-114952380D02*
X143761904Y-114952380D01*
X143476190Y-115952380D02*
X143476190Y-114952380D01*
X126892857Y-86857142D02*
X126821428Y-87071428D01*
X126821428Y-87428571D01*
X126892857Y-87571428D01*
X126964285Y-87642857D01*
X127107142Y-87714285D01*
X127250000Y-87714285D01*
X127392857Y-87642857D01*
X127464285Y-87571428D01*
X127535714Y-87428571D01*
X127607142Y-87142857D01*
X127678571Y-87000000D01*
X127750000Y-86928571D01*
X127892857Y-86857142D01*
X128035714Y-86857142D01*
X128178571Y-86928571D01*
X128250000Y-87000000D01*
X128321428Y-87142857D01*
X128321428Y-87500000D01*
X128250000Y-87714285D01*
X128321428Y-88785714D02*
X127250000Y-88785714D01*
X127035714Y-88714285D01*
X126892857Y-88571428D01*
X126821428Y-88357142D01*
X126821428Y-88214285D01*
X128321428Y-89285714D02*
X128321428Y-90142857D01*
X126821428Y-89714285D02*
X128321428Y-89714285D01*
X127392857Y-90642857D02*
X127392857Y-91785714D01*
X127607142Y-93000000D02*
X127607142Y-92500000D01*
X126821428Y-92500000D02*
X128321428Y-92500000D01*
X128321428Y-93214285D01*
X126964285Y-94642857D02*
X126892857Y-94571428D01*
X126821428Y-94357142D01*
X126821428Y-94214285D01*
X126892857Y-94000000D01*
X127035714Y-93857142D01*
X127178571Y-93785714D01*
X127464285Y-93714285D01*
X127678571Y-93714285D01*
X127964285Y-93785714D01*
X128107142Y-93857142D01*
X128250000Y-94000000D01*
X128321428Y-94214285D01*
X128321428Y-94357142D01*
X128250000Y-94571428D01*
X128178571Y-94642857D01*
X127607142Y-95785714D02*
X127535714Y-96000000D01*
X127464285Y-96071428D01*
X127321428Y-96142857D01*
X127107142Y-96142857D01*
X126964285Y-96071428D01*
X126892857Y-96000000D01*
X126821428Y-95857142D01*
X126821428Y-95285714D01*
X128321428Y-95285714D01*
X128321428Y-95785714D01*
X128250000Y-95928571D01*
X128178571Y-96000000D01*
X128035714Y-96071428D01*
X127892857Y-96071428D01*
X127750000Y-96000000D01*
X127678571Y-95928571D01*
X127607142Y-95785714D01*
X127607142Y-95285714D01*
X127607142Y-97928571D02*
X127607142Y-99071428D01*
X127178571Y-99071428D02*
X127178571Y-97928571D01*
X126250000Y-99642857D02*
X126321428Y-99714285D01*
X126535714Y-99857142D01*
X126678571Y-99928571D01*
X126892857Y-100000000D01*
X127250000Y-100071428D01*
X127535714Y-100071428D01*
X127892857Y-100000000D01*
X128107142Y-99928571D01*
X128250000Y-99857142D01*
X128464285Y-99714285D01*
X128535714Y-99642857D01*
%TO.C,J5*%
X152716666Y-80415880D02*
X152383333Y-79939690D01*
X152145238Y-80415880D02*
X152145238Y-79415880D01*
X152526190Y-79415880D01*
X152621428Y-79463500D01*
X152669047Y-79511119D01*
X152716666Y-79606357D01*
X152716666Y-79749214D01*
X152669047Y-79844452D01*
X152621428Y-79892071D01*
X152526190Y-79939690D01*
X152145238Y-79939690D01*
X153145238Y-79892071D02*
X153478571Y-79892071D01*
X153621428Y-80415880D02*
X153145238Y-80415880D01*
X153145238Y-79415880D01*
X153621428Y-79415880D01*
X154383333Y-79892071D02*
X154050000Y-79892071D01*
X154050000Y-80415880D02*
X154050000Y-79415880D01*
X154526190Y-79415880D01*
X155050000Y-79415880D02*
X155050000Y-79653976D01*
X154811904Y-79558738D02*
X155050000Y-79653976D01*
X155288095Y-79558738D01*
X154907142Y-79844452D02*
X155050000Y-79653976D01*
X155192857Y-79844452D01*
X155811904Y-79415880D02*
X155811904Y-79653976D01*
X155573809Y-79558738D02*
X155811904Y-79653976D01*
X156050000Y-79558738D01*
X155669047Y-79844452D02*
X155811904Y-79653976D01*
X155954761Y-79844452D01*
D11*
%TO.C,R23*%
X167037742Y-110277500D02*
X167512258Y-110277500D01*
X167037742Y-111322500D02*
X167512258Y-111322500D01*
%TO.C,C13*%
X138760000Y-104890580D02*
X138760000Y-104609420D01*
X137740000Y-104890580D02*
X137740000Y-104609420D01*
%TO.C,R14*%
X132737258Y-112772500D02*
X132262742Y-112772500D01*
X132737258Y-111727500D02*
X132262742Y-111727500D01*
%TO.C,R28*%
X165977500Y-97987258D02*
X165977500Y-97512742D01*
X167022500Y-97987258D02*
X167022500Y-97512742D01*
%TO.C,J9*%
X167940000Y-103250000D02*
X167940000Y-102190000D01*
X167940000Y-104250000D02*
X167940000Y-108310000D01*
X167940000Y-104250000D02*
X170060000Y-104250000D01*
X167940000Y-108310000D02*
X170060000Y-108310000D01*
X170060000Y-104250000D02*
X170060000Y-108310000D01*
X167940000Y-102190000D02*
X169000000Y-102190000D01*
%TO.C,U7*%
D12*
X159080901Y-115650000D02*
G75*
G03*
X159080901Y-115650000I-80901J0D01*
G01*
D13*
X157200000Y-113150000D02*
X156700000Y-113150000D01*
X156700000Y-113150000D02*
X156700000Y-113750000D01*
X159300000Y-114750000D02*
X159300000Y-115350000D01*
X159300000Y-113750000D02*
X159300000Y-113150000D01*
X159300000Y-113150000D02*
X158750000Y-113150000D01*
X156700000Y-114750000D02*
X156700000Y-115350000D01*
X159300000Y-115350000D02*
X158800000Y-115350000D01*
X156700000Y-115350000D02*
X157200000Y-115350000D01*
D11*
%TO.C,R17*%
X137727500Y-108012742D02*
X137727500Y-108487258D01*
X138772500Y-108012742D02*
X138772500Y-108487258D01*
%TO.C,C9*%
X137990000Y-90390580D02*
X137990000Y-90109420D01*
X139010000Y-90390580D02*
X139010000Y-90109420D01*
%TO.C,Q1*%
X152190000Y-97500000D02*
X152190000Y-96850000D01*
X155310000Y-97500000D02*
X155310000Y-96850000D01*
X155310000Y-97500000D02*
X155310000Y-98150000D01*
X152190000Y-97500000D02*
X152190000Y-99175000D01*
%TO.C,U4*%
X144900000Y-105275000D02*
X144640000Y-105275000D01*
X144900000Y-108000000D02*
X144900000Y-110725000D01*
X144900000Y-110725000D02*
X144640000Y-110725000D01*
X139450000Y-105275000D02*
X139710000Y-105275000D01*
X139450000Y-108000000D02*
X139450000Y-105275000D01*
X139450000Y-108000000D02*
X139450000Y-110725000D01*
X139450000Y-110725000D02*
X139710000Y-110725000D01*
X144900000Y-108000000D02*
X144900000Y-105275000D01*
X139710000Y-110725000D02*
X139710000Y-112400000D01*
%TO.C,R2*%
X132027500Y-81762742D02*
X132027500Y-82237258D01*
X133072500Y-81762742D02*
X133072500Y-82237258D01*
%TO.C,U1*%
X155519435Y-110835876D02*
X155855311Y-110500000D01*
X145644689Y-110500000D02*
X145980565Y-110835876D01*
X150414124Y-105730565D02*
X150750000Y-105394689D01*
X145980565Y-110164124D02*
X145644689Y-110500000D01*
X151085876Y-115269435D02*
X150750000Y-115605311D01*
X150750000Y-115605311D02*
X150414124Y-115269435D01*
X150750000Y-105394689D02*
X151085876Y-105730565D01*
%TO.C,R1*%
X135522500Y-82237258D02*
X135522500Y-81762742D01*
X134477500Y-82237258D02*
X134477500Y-81762742D01*
%TO.C,D7*%
X153500000Y-90750000D02*
X153500000Y-94650000D01*
X155500000Y-90750000D02*
X155500000Y-94650000D01*
X155500000Y-90750000D02*
X153500000Y-90750000D01*
%TO.C,J4*%
X153190000Y-124060000D02*
X153190000Y-123000000D01*
X155250000Y-121940000D02*
X161310000Y-121940000D01*
X155250000Y-124060000D02*
X155250000Y-121940000D01*
X155250000Y-124060000D02*
X161310000Y-124060000D01*
X154250000Y-124060000D02*
X153190000Y-124060000D01*
X161310000Y-124060000D02*
X161310000Y-121940000D01*
%TO.C,C11*%
X140510000Y-102885000D02*
X140510000Y-98500000D01*
X137490000Y-102885000D02*
X140510000Y-102885000D01*
X137490000Y-98500000D02*
X137490000Y-102885000D01*
%TO.C,R12*%
X155822500Y-113962742D02*
X155822500Y-114437258D01*
X154777500Y-113962742D02*
X154777500Y-114437258D01*
%TO.C,R6*%
X157022500Y-103762742D02*
X157022500Y-104237258D01*
X155977500Y-103762742D02*
X155977500Y-104237258D01*
%TO.C,R4*%
X142877500Y-98987742D02*
X142877500Y-99462258D01*
X143922500Y-98987742D02*
X143922500Y-99462258D01*
%TO.C,R15*%
X139187742Y-114272500D02*
X139662258Y-114272500D01*
X139187742Y-113227500D02*
X139662258Y-113227500D01*
%TO.C,R7*%
X151772500Y-122737258D02*
X151772500Y-122262742D01*
X150727500Y-122737258D02*
X150727500Y-122262742D01*
%TO.C,J11*%
X167940000Y-90310000D02*
X170060000Y-90310000D01*
X167940000Y-86250000D02*
X167940000Y-90310000D01*
X167940000Y-84190000D02*
X169000000Y-84190000D01*
X167940000Y-86250000D02*
X170060000Y-86250000D01*
X167940000Y-85250000D02*
X167940000Y-84190000D01*
X170060000Y-86250000D02*
X170060000Y-90310000D01*
D10*
%TO.C,U2*%
X139175000Y-92175000D02*
X139175000Y-92225000D01*
X139175000Y-97325000D02*
X143325000Y-97325000D01*
X139175000Y-92175000D02*
X143325000Y-92175000D01*
X143325000Y-97325000D02*
X143325000Y-97180000D01*
X139175000Y-92225000D02*
X137775000Y-92225000D01*
X143325000Y-92175000D02*
X143325000Y-92320000D01*
X139175000Y-97325000D02*
X139175000Y-97180000D01*
D11*
%TO.C,C19*%
X159710000Y-119459420D02*
X159710000Y-119740580D01*
X158690000Y-119459420D02*
X158690000Y-119740580D01*
%TO.C,C3*%
X145490000Y-94890580D02*
X145490000Y-94609420D01*
X146510000Y-94890580D02*
X146510000Y-94609420D01*
%TO.C,R22*%
X133227500Y-122237258D02*
X133227500Y-121762742D01*
X134272500Y-122237258D02*
X134272500Y-121762742D01*
%TO.C,U8*%
D10*
X152475000Y-118450000D02*
G75*
G03*
X152475000Y-118450000I-75000J0D01*
G01*
D11*
X152950000Y-120650000D02*
X153250000Y-120650000D01*
X152950000Y-120650000D02*
X152950000Y-120350000D01*
X152950000Y-117750000D02*
X153250000Y-117750000D01*
X155850000Y-117750000D02*
X155850000Y-118050000D01*
X155850000Y-120650000D02*
X155550000Y-120650000D01*
X155850000Y-120650000D02*
X155850000Y-120350000D01*
X155850000Y-117750000D02*
X155550000Y-117750000D01*
X152950000Y-117750000D02*
X152950000Y-118050000D01*
%TO.C,J7*%
X125940000Y-112750000D02*
X125940000Y-108690000D01*
X128060000Y-113750000D02*
X128060000Y-114810000D01*
X128060000Y-112750000D02*
X125940000Y-112750000D01*
X128060000Y-114810000D02*
X127000000Y-114810000D01*
X128060000Y-112750000D02*
X128060000Y-108690000D01*
X128060000Y-108690000D02*
X125940000Y-108690000D01*
D10*
%TO.C,SW2*%
X130500000Y-122000000D02*
G75*
G03*
X130500000Y-122000000I-750000J0D01*
G01*
D11*
X127750000Y-120500000D02*
X131750000Y-120500000D01*
X127750000Y-123500000D02*
X131750000Y-123500000D01*
%TO.C,C12*%
X131859420Y-99490000D02*
X132140580Y-99490000D01*
X131859420Y-100510000D02*
X132140580Y-100510000D01*
%TO.C,D6*%
X128765000Y-108950000D02*
X128765000Y-111235000D01*
X128765000Y-111235000D02*
X130235000Y-111235000D01*
X130235000Y-111235000D02*
X130235000Y-108950000D01*
%TO.C,R16*%
X139162742Y-116122500D02*
X139637258Y-116122500D01*
X139162742Y-115077500D02*
X139637258Y-115077500D01*
%TO.C,L1*%
X129550000Y-91050000D02*
X131850000Y-91050000D01*
X134650000Y-91050000D02*
X136950000Y-91050000D01*
X136950000Y-98450000D02*
X134650000Y-98450000D01*
X136950000Y-91050000D02*
X136950000Y-98450000D01*
X131850000Y-98450000D02*
X129550000Y-98450000D01*
X129550000Y-98450000D02*
X129550000Y-91050000D01*
%TO.C,R27*%
X165977500Y-103512258D02*
X165977500Y-103037742D01*
X167022500Y-103512258D02*
X167022500Y-103037742D01*
%TO.C,CL2*%
X159115580Y-100490000D02*
X158834420Y-100490000D01*
X159115580Y-101510000D02*
X158834420Y-101510000D01*
%TO.C,D4*%
X136550000Y-111515000D02*
X134265000Y-111515000D01*
X134265000Y-111515000D02*
X134265000Y-112985000D01*
X134265000Y-112985000D02*
X136550000Y-112985000D01*
%TO.C,D5*%
X167135000Y-114400000D02*
X167135000Y-112115000D01*
X167135000Y-112115000D02*
X165665000Y-112115000D01*
X165665000Y-112115000D02*
X165665000Y-114400000D01*
%TO.C,R20*%
X164062258Y-120677500D02*
X163587742Y-120677500D01*
X164062258Y-121722500D02*
X163587742Y-121722500D01*
%TO.C,BZ1*%
X159250000Y-97000000D02*
X161750000Y-98500000D01*
X159250000Y-97000000D02*
X159250000Y-93000000D01*
X158750000Y-90750000D02*
X162750000Y-90750000D01*
D10*
X163300000Y-94220577D02*
X163300000Y-95779423D01*
D11*
X158000000Y-97000000D02*
X159250000Y-97000000D01*
X159250000Y-93000000D02*
X158000000Y-93000000D01*
X161750000Y-91500000D02*
X161750000Y-98500000D01*
X165000000Y-93000000D02*
X165000000Y-97000000D01*
D10*
X164650000Y-95000000D02*
X163300000Y-94220577D01*
D11*
X158000000Y-93000000D02*
X158000000Y-97000000D01*
X159250000Y-93000000D02*
X161750000Y-91500000D01*
X162750000Y-99250000D02*
X158750000Y-99250000D01*
X156500000Y-97000000D02*
X156500000Y-93000000D01*
D10*
X163300000Y-95779423D02*
X164650000Y-95000000D01*
D11*
%TO.C,R11*%
X136227500Y-119987258D02*
X136227500Y-119512742D01*
X137272500Y-119987258D02*
X137272500Y-119512742D01*
%TO.C,C1*%
X146510000Y-105059420D02*
X146510000Y-105340580D01*
X145490000Y-105059420D02*
X145490000Y-105340580D01*
%TO.C,R19*%
X162237258Y-111977500D02*
X161762742Y-111977500D01*
X162237258Y-113022500D02*
X161762742Y-113022500D01*
%TO.C,J6*%
X167940000Y-114500000D02*
X167940000Y-118560000D01*
X167940000Y-118560000D02*
X170060000Y-118560000D01*
X167940000Y-114500000D02*
X170060000Y-114500000D01*
X167940000Y-113500000D02*
X167940000Y-112440000D01*
X167940000Y-112440000D02*
X169000000Y-112440000D01*
X170060000Y-114500000D02*
X170060000Y-118560000D01*
%TO.C,R5*%
X142837258Y-102322500D02*
X142362742Y-102322500D01*
X142837258Y-101277500D02*
X142362742Y-101277500D01*
%TO.C,CL1*%
X159140580Y-107510000D02*
X158859420Y-107510000D01*
X159140580Y-106490000D02*
X158859420Y-106490000D01*
%TO.C,R13*%
X135512742Y-109772500D02*
X135987258Y-109772500D01*
X135512742Y-108727500D02*
X135987258Y-108727500D01*
%TO.C,C10*%
X135640580Y-99240000D02*
X135359420Y-99240000D01*
X135640580Y-100260000D02*
X135359420Y-100260000D01*
%TO.C,R3*%
X142122500Y-99437258D02*
X142122500Y-98962742D01*
X141077500Y-99437258D02*
X141077500Y-98962742D01*
%TO.C,J10*%
X167940000Y-99560000D02*
X170060000Y-99560000D01*
X167940000Y-95500000D02*
X167940000Y-99560000D01*
X170060000Y-95500000D02*
X170060000Y-99560000D01*
X167940000Y-94500000D02*
X167940000Y-93440000D01*
X167940000Y-93440000D02*
X169000000Y-93440000D01*
X167940000Y-95500000D02*
X170060000Y-95500000D01*
%TO.C,U9*%
X154560000Y-87400000D02*
X154560000Y-88200000D01*
X151440000Y-87400000D02*
X151440000Y-88200000D01*
X154560000Y-87400000D02*
X154560000Y-85600000D01*
X151440000Y-87400000D02*
X151440000Y-86600000D01*
%TO.C,Y1*%
X157350000Y-102000000D02*
X157350000Y-106000000D01*
X160650000Y-102000000D02*
X157350000Y-102000000D01*
%TO.C,R10*%
X145272500Y-119012742D02*
X145272500Y-119487258D01*
X144227500Y-119012742D02*
X144227500Y-119487258D01*
%TO.C,D1*%
X144500000Y-91750000D02*
X140600000Y-91750000D01*
X144500000Y-91750000D02*
X144500000Y-89750000D01*
X144500000Y-89750000D02*
X140600000Y-89750000D01*
%TO.C,C2*%
X148211252Y-92660000D02*
X146788748Y-92660000D01*
X148211252Y-90840000D02*
X146788748Y-90840000D01*
%TO.C,U3*%
X130840000Y-101090000D02*
X130840000Y-102350000D01*
X136850000Y-107910000D02*
X130840000Y-107910000D01*
X130840000Y-107910000D02*
X130840000Y-106650000D01*
X134600000Y-101090000D02*
X130840000Y-101090000D01*
D14*
%TO.C,J5*%
X158050000Y-78638500D02*
X158050000Y-82963500D01*
X150050000Y-78638500D02*
X150050000Y-82963500D01*
X158050000Y-78638500D02*
X150050000Y-78638500D01*
D10*
%TO.C,SW1*%
X141500000Y-118250000D02*
G75*
G03*
X141500000Y-118250000I-750000J0D01*
G01*
D11*
X142750000Y-116750000D02*
X138750000Y-116750000D01*
X142750000Y-119750000D02*
X138750000Y-119750000D01*
%TO.C,R29*%
X167022500Y-94737258D02*
X167022500Y-94262742D01*
X165977500Y-94737258D02*
X165977500Y-94262742D01*
%TO.C,R8*%
X150727500Y-119412258D02*
X150727500Y-118937742D01*
X151772500Y-119412258D02*
X151772500Y-118937742D01*
%TO.C,J8*%
X137250000Y-121940000D02*
X143310000Y-121940000D01*
X143310000Y-124060000D02*
X143310000Y-121940000D01*
X137250000Y-124060000D02*
X137250000Y-121940000D01*
X136250000Y-124060000D02*
X135190000Y-124060000D01*
X135190000Y-124060000D02*
X135190000Y-123000000D01*
X137250000Y-124060000D02*
X143310000Y-124060000D01*
%TO.C,R24*%
X130022500Y-112787742D02*
X130022500Y-113262258D01*
X128977500Y-112787742D02*
X128977500Y-113262258D01*
%TO.C,C20*%
X156690000Y-119459420D02*
X156690000Y-119740580D01*
X157710000Y-119459420D02*
X157710000Y-119740580D01*
%TO.C,J2*%
X147047470Y-123545000D02*
X146225000Y-123545000D01*
X147865000Y-122143471D02*
X147865000Y-122286529D01*
X147865000Y-123545000D02*
X147662530Y-123545000D01*
X149755000Y-123610000D02*
X148625000Y-123610000D01*
X148061529Y-122090000D02*
X147918471Y-122090000D01*
X148317470Y-117075000D02*
X147662530Y-117075000D01*
X146225000Y-123545000D02*
X146225000Y-117075000D01*
X147865000Y-123413471D02*
X147865000Y-123545000D01*
X149755000Y-117075000D02*
X148932530Y-117075000D01*
X149755000Y-122090000D02*
X149755000Y-117075000D01*
X149755000Y-122090000D02*
X149188471Y-122090000D01*
X147047470Y-117075000D02*
X146225000Y-117075000D01*
X149755000Y-122850000D02*
X149755000Y-123610000D01*
%TO.C,J1*%
X136890000Y-84535000D02*
X137940000Y-84535000D01*
X146060000Y-84535000D02*
X146060000Y-85525000D01*
X136890000Y-82035000D02*
X136890000Y-84535000D01*
X147110000Y-84535000D02*
X146060000Y-84535000D01*
X147110000Y-82035000D02*
X147110000Y-84535000D01*
X145940000Y-80065000D02*
X138060000Y-80065000D01*
%TO.C,R25*%
X153022500Y-93762742D02*
X153022500Y-94237258D01*
X151977500Y-93762742D02*
X151977500Y-94237258D01*
%TO.C,C4*%
X157540580Y-110910000D02*
X157259420Y-110910000D01*
X157540580Y-109890000D02*
X157259420Y-109890000D01*
%TO.C,R9*%
X144227500Y-122262742D02*
X144227500Y-122737258D01*
X145272500Y-122262742D02*
X145272500Y-122737258D01*
%TO.C,D2*%
X159500000Y-87500000D02*
X159500000Y-85500000D01*
X159500000Y-85500000D02*
X155600000Y-85500000D01*
X159500000Y-87500000D02*
X155600000Y-87500000D01*
%TO.C,R26*%
X165977500Y-106712258D02*
X165977500Y-106237742D01*
X167022500Y-106712258D02*
X167022500Y-106237742D01*
%TO.C,D3*%
X134085000Y-109985000D02*
X134085000Y-108515000D01*
X131800000Y-109985000D02*
X134085000Y-109985000D01*
X134085000Y-108515000D02*
X131800000Y-108515000D01*
%TO.C,R21*%
X164062258Y-123422500D02*
X163587742Y-123422500D01*
X164062258Y-122377500D02*
X163587742Y-122377500D01*
%TO.C,FB1*%
X137688748Y-86515000D02*
X138211252Y-86515000D01*
X137688748Y-87985000D02*
X138211252Y-87985000D01*
%TO.C,U5*%
X147040000Y-100640000D02*
X146390000Y-100640000D01*
X146390000Y-103360000D02*
X146390000Y-103210000D01*
X149610000Y-100640000D02*
X149610000Y-100790000D01*
X148960000Y-103360000D02*
X149610000Y-103360000D01*
X149610000Y-103360000D02*
X149610000Y-103210000D01*
X148960000Y-100640000D02*
X149610000Y-100640000D01*
X147040000Y-103360000D02*
X146390000Y-103360000D01*
%TO.C,R18*%
X148237258Y-100022500D02*
X147762742Y-100022500D01*
X148237258Y-98977500D02*
X147762742Y-98977500D01*
%TD*%
M02*
