%TF.GenerationSoftware,KiCad,Pcbnew,(6.0.1)*%
%TF.CreationDate,2022-03-28T13:47:26+03:00*%
%TF.ProjectId,fcb,6663622e-6b69-4636-9164-5f7063625858,0*%
%TF.SameCoordinates,Original*%
%TF.FileFunction,Legend,Bot*%
%TF.FilePolarity,Positive*%
%FSLAX46Y46*%
G04 Gerber Fmt 4.6, Leading zero omitted, Abs format (unit mm)*
G04 Created by KiCad (PCBNEW (6.0.1)) date 2022-03-28 13:47:26*
%MOMM*%
%LPD*%
G01*
G04 APERTURE LIST*
%ADD10C,0.150000*%
%ADD11C,0.120000*%
%ADD12C,0.560000*%
G04 APERTURE END LIST*
D10*
X138119047Y-91952380D02*
X138119047Y-92666666D01*
X138166666Y-92809523D01*
X138261904Y-92904761D01*
X138404761Y-92952380D01*
X138500000Y-92952380D01*
X137166666Y-92952380D02*
X137642857Y-92952380D01*
X137642857Y-91952380D01*
X136261904Y-92857142D02*
X136309523Y-92904761D01*
X136452380Y-92952380D01*
X136547619Y-92952380D01*
X136690476Y-92904761D01*
X136785714Y-92809523D01*
X136833333Y-92714285D01*
X136880952Y-92523809D01*
X136880952Y-92380952D01*
X136833333Y-92190476D01*
X136785714Y-92095238D01*
X136690476Y-92000000D01*
X136547619Y-91952380D01*
X136452380Y-91952380D01*
X136309523Y-92000000D01*
X136261904Y-92047619D01*
X135547619Y-91952380D02*
X135547619Y-92666666D01*
X135595238Y-92809523D01*
X135690476Y-92904761D01*
X135833333Y-92952380D01*
X135928571Y-92952380D01*
X134595238Y-92952380D02*
X135071428Y-92952380D01*
X135071428Y-91952380D01*
X133690476Y-92857142D02*
X133738095Y-92904761D01*
X133880952Y-92952380D01*
X133976190Y-92952380D01*
X134119047Y-92904761D01*
X134214285Y-92809523D01*
X134261904Y-92714285D01*
X134309523Y-92523809D01*
X134309523Y-92380952D01*
X134261904Y-92190476D01*
X134214285Y-92095238D01*
X134119047Y-92000000D01*
X133976190Y-91952380D01*
X133880952Y-91952380D01*
X133738095Y-92000000D01*
X133690476Y-92047619D01*
X132976190Y-91952380D02*
X132976190Y-92666666D01*
X133023809Y-92809523D01*
X133119047Y-92904761D01*
X133261904Y-92952380D01*
X133357142Y-92952380D01*
X132023809Y-92952380D02*
X132500000Y-92952380D01*
X132500000Y-91952380D01*
X131119047Y-92857142D02*
X131166666Y-92904761D01*
X131309523Y-92952380D01*
X131404761Y-92952380D01*
X131547619Y-92904761D01*
X131642857Y-92809523D01*
X131690476Y-92714285D01*
X131738095Y-92523809D01*
X131738095Y-92380952D01*
X131690476Y-92190476D01*
X131642857Y-92095238D01*
X131547619Y-92000000D01*
X131404761Y-91952380D01*
X131309523Y-91952380D01*
X131166666Y-92000000D01*
X131119047Y-92047619D01*
X130404761Y-91952380D02*
X130404761Y-92666666D01*
X130452380Y-92809523D01*
X130547619Y-92904761D01*
X130690476Y-92952380D01*
X130785714Y-92952380D01*
X129452380Y-92952380D02*
X129928571Y-92952380D01*
X129928571Y-91952380D01*
X128547619Y-92857142D02*
X128595238Y-92904761D01*
X128738095Y-92952380D01*
X128833333Y-92952380D01*
X128976190Y-92904761D01*
X129071428Y-92809523D01*
X129119047Y-92714285D01*
X129166666Y-92523809D01*
X129166666Y-92380952D01*
X129119047Y-92190476D01*
X129071428Y-92095238D01*
X128976190Y-92000000D01*
X128833333Y-91952380D01*
X128738095Y-91952380D01*
X128595238Y-92000000D01*
X128547619Y-92047619D01*
%TO.C,U6*%
X167052380Y-108812023D02*
X167052380Y-108240595D01*
X167052380Y-108526309D02*
X166052380Y-108526309D01*
X166195238Y-108431071D01*
X166290476Y-108335833D01*
X166338095Y-108240595D01*
X153052380Y-107859642D02*
X153052380Y-107288214D01*
X153052380Y-107573928D02*
X152052380Y-107573928D01*
X152195238Y-107478690D01*
X152290476Y-107383452D01*
X152338095Y-107288214D01*
X152052380Y-108716785D02*
X152052380Y-108526309D01*
X152100000Y-108431071D01*
X152147619Y-108383452D01*
X152290476Y-108288214D01*
X152480952Y-108240595D01*
X152861904Y-108240595D01*
X152957142Y-108288214D01*
X153004761Y-108335833D01*
X153052380Y-108431071D01*
X153052380Y-108621547D01*
X153004761Y-108716785D01*
X152957142Y-108764404D01*
X152861904Y-108812023D01*
X152623809Y-108812023D01*
X152528571Y-108764404D01*
X152480952Y-108716785D01*
X152433333Y-108621547D01*
X152433333Y-108431071D01*
X152480952Y-108335833D01*
X152528571Y-108288214D01*
X152623809Y-108240595D01*
X155957142Y-100004761D02*
X155814285Y-100052380D01*
X155576190Y-100052380D01*
X155480952Y-100004761D01*
X155433333Y-99957142D01*
X155385714Y-99861904D01*
X155385714Y-99766666D01*
X155433333Y-99671428D01*
X155480952Y-99623809D01*
X155576190Y-99576190D01*
X155766666Y-99528571D01*
X155861904Y-99480952D01*
X155909523Y-99433333D01*
X155957142Y-99338095D01*
X155957142Y-99242857D01*
X155909523Y-99147619D01*
X155861904Y-99100000D01*
X155766666Y-99052380D01*
X155528571Y-99052380D01*
X155385714Y-99100000D01*
X155052380Y-99052380D02*
X154814285Y-100052380D01*
X154623809Y-99338095D01*
X154433333Y-100052380D01*
X154195238Y-99052380D01*
X162171428Y-106052380D02*
X161980952Y-106052380D01*
X161885714Y-106100000D01*
X161790476Y-106195238D01*
X161742857Y-106385714D01*
X161742857Y-106719047D01*
X161790476Y-106909523D01*
X161885714Y-107004761D01*
X161980952Y-107052380D01*
X162171428Y-107052380D01*
X162266666Y-107004761D01*
X162361904Y-106909523D01*
X162409523Y-106719047D01*
X162409523Y-106385714D01*
X162361904Y-106195238D01*
X162266666Y-106100000D01*
X162171428Y-106052380D01*
X161361904Y-107004761D02*
X161219047Y-107052380D01*
X160980952Y-107052380D01*
X160885714Y-107004761D01*
X160838095Y-106957142D01*
X160790476Y-106861904D01*
X160790476Y-106766666D01*
X160838095Y-106671428D01*
X160885714Y-106623809D01*
X160980952Y-106576190D01*
X161171428Y-106528571D01*
X161266666Y-106480952D01*
X161314285Y-106433333D01*
X161361904Y-106338095D01*
X161361904Y-106242857D01*
X161314285Y-106147619D01*
X161266666Y-106100000D01*
X161171428Y-106052380D01*
X160933333Y-106052380D01*
X160790476Y-106100000D01*
X159790476Y-106957142D02*
X159838095Y-107004761D01*
X159980952Y-107052380D01*
X160076190Y-107052380D01*
X160219047Y-107004761D01*
X160314285Y-106909523D01*
X160361904Y-106814285D01*
X160409523Y-106623809D01*
X160409523Y-106480952D01*
X160361904Y-106290476D01*
X160314285Y-106195238D01*
X160219047Y-106100000D01*
X160076190Y-106052380D01*
X159980952Y-106052380D01*
X159838095Y-106100000D01*
X159790476Y-106147619D01*
X166480952Y-96504761D02*
X166433333Y-96409523D01*
X166385714Y-96361904D01*
X166290476Y-96314285D01*
X166242857Y-96314285D01*
X166147619Y-96361904D01*
X166100000Y-96409523D01*
X166052380Y-96504761D01*
X166052380Y-96695238D01*
X166100000Y-96790476D01*
X166147619Y-96838095D01*
X166242857Y-96885714D01*
X166290476Y-96885714D01*
X166385714Y-96838095D01*
X166433333Y-96790476D01*
X166480952Y-96695238D01*
X166480952Y-96504761D01*
X166528571Y-96409523D01*
X166576190Y-96361904D01*
X166671428Y-96314285D01*
X166861904Y-96314285D01*
X166957142Y-96361904D01*
X167004761Y-96409523D01*
X167052380Y-96504761D01*
X167052380Y-96695238D01*
X167004761Y-96790476D01*
X166957142Y-96838095D01*
X166861904Y-96885714D01*
X166671428Y-96885714D01*
X166576190Y-96838095D01*
X166528571Y-96790476D01*
X166480952Y-96695238D01*
X153052380Y-96959404D02*
X153052380Y-96387976D01*
X153052380Y-96673690D02*
X152052380Y-96673690D01*
X152195238Y-96578452D01*
X152290476Y-96483214D01*
X152338095Y-96387976D01*
X164457142Y-101052380D02*
X164790476Y-100576190D01*
X165028571Y-101052380D02*
X165028571Y-100052380D01*
X164647619Y-100052380D01*
X164552380Y-100100000D01*
X164504761Y-100147619D01*
X164457142Y-100242857D01*
X164457142Y-100385714D01*
X164504761Y-100480952D01*
X164552380Y-100528571D01*
X164647619Y-100576190D01*
X165028571Y-100576190D01*
X163695238Y-100528571D02*
X164028571Y-100528571D01*
X164028571Y-101052380D02*
X164028571Y-100052380D01*
X163552380Y-100052380D01*
X163171428Y-101052380D02*
X163171428Y-100052380D01*
X162123809Y-100957142D02*
X162171428Y-101004761D01*
X162314285Y-101052380D01*
X162409523Y-101052380D01*
X162552380Y-101004761D01*
X162647619Y-100909523D01*
X162695238Y-100814285D01*
X162742857Y-100623809D01*
X162742857Y-100480952D01*
X162695238Y-100290476D01*
X162647619Y-100195238D01*
X162552380Y-100100000D01*
X162409523Y-100052380D01*
X162314285Y-100052380D01*
X162171428Y-100100000D01*
X162123809Y-100147619D01*
D11*
%TO.C,C15*%
X150760000Y-102865580D02*
X150760000Y-102584420D01*
X149740000Y-102865580D02*
X149740000Y-102584420D01*
%TO.C,C5*%
X158659420Y-113110000D02*
X158940580Y-113110000D01*
X158659420Y-112090000D02*
X158940580Y-112090000D01*
%TO.C,C7*%
X147165580Y-108690000D02*
X146884420Y-108690000D01*
X147165580Y-109710000D02*
X146884420Y-109710000D01*
%TO.C,U6*%
X151600000Y-94600000D02*
X151600000Y-110600000D01*
X167600000Y-94600000D02*
X167600000Y-110600000D01*
X158100000Y-104600000D02*
X163600000Y-104600000D01*
X163600000Y-104600000D02*
X163600000Y-108100000D01*
X163600000Y-108100000D02*
X158100000Y-108100000D01*
X158100000Y-108100000D02*
X158100000Y-104600000D01*
X160600000Y-98600000D02*
X166600000Y-98600000D01*
X166600000Y-98600000D02*
X166600000Y-102600000D01*
X166600000Y-102600000D02*
X160600000Y-102600000D01*
X160600000Y-102600000D02*
X160600000Y-98600000D01*
X153100000Y-98100000D02*
X157100000Y-98100000D01*
X157100000Y-98100000D02*
X157100000Y-101100000D01*
X157100000Y-101100000D02*
X153100000Y-101100000D01*
X153100000Y-101100000D02*
X153100000Y-98100000D01*
D12*
X150880000Y-95100000D02*
G75*
G03*
X150880000Y-95100000I-280000J0D01*
G01*
D11*
%TO.C,C16*%
X147334420Y-103740000D02*
X147615580Y-103740000D01*
X147334420Y-104760000D02*
X147615580Y-104760000D01*
%TO.C,C18*%
X159710000Y-116659420D02*
X159710000Y-116940580D01*
X158690000Y-116659420D02*
X158690000Y-116940580D01*
%TO.C,C6*%
X151310000Y-117340580D02*
X151310000Y-117059420D01*
X150290000Y-117340580D02*
X150290000Y-117059420D01*
%TO.C,C14*%
X142059420Y-108310000D02*
X142340580Y-108310000D01*
X142059420Y-107290000D02*
X142340580Y-107290000D01*
%TO.C,C8*%
X150290000Y-108540580D02*
X150290000Y-108259420D01*
X151310000Y-108540580D02*
X151310000Y-108259420D01*
D10*
%TO.C,J3*%
X152700000Y-86800000D02*
X153200000Y-86800000D01*
X152700000Y-84200000D02*
X153200000Y-84200000D01*
X154000000Y-85500000D02*
X154000000Y-86200000D01*
X155300000Y-86800000D02*
X154800000Y-86800000D01*
X155300000Y-84200000D02*
X154800000Y-84200000D01*
X154300000Y-85900000D02*
G75*
G03*
X153700000Y-85900000I-300000J400000D01*
G01*
D11*
%TO.C,C21*%
X156190000Y-119059420D02*
X156190000Y-119340580D01*
X157210000Y-119059420D02*
X157210000Y-119340580D01*
%TD*%
M02*
