%TF.GenerationSoftware,KiCad,Pcbnew,(6.0.1)*%
%TF.CreationDate,2022-04-25T14:18:17+03:00*%
%TF.ProjectId,fcb,6663622e-6b69-4636-9164-5f7063625858,0*%
%TF.SameCoordinates,Original*%
%TF.FileFunction,Soldermask,Top*%
%TF.FilePolarity,Negative*%
%FSLAX46Y46*%
G04 Gerber Fmt 4.6, Leading zero omitted, Abs format (unit mm)*
G04 Created by KiCad (PCBNEW (6.0.1)) date 2022-04-25 14:18:17*
%MOMM*%
%LPD*%
G01*
G04 APERTURE LIST*
G04 Aperture macros list*
%AMRoundRect*
0 Rectangle with rounded corners*
0 $1 Rounding radius*
0 $2 $3 $4 $5 $6 $7 $8 $9 X,Y pos of 4 corners*
0 Add a 4 corners polygon primitive as box body*
4,1,4,$2,$3,$4,$5,$6,$7,$8,$9,$2,$3,0*
0 Add four circle primitives for the rounded corners*
1,1,$1+$1,$2,$3*
1,1,$1+$1,$4,$5*
1,1,$1+$1,$6,$7*
1,1,$1+$1,$8,$9*
0 Add four rect primitives between the rounded corners*
20,1,$1+$1,$2,$3,$4,$5,0*
20,1,$1+$1,$4,$5,$6,$7,0*
20,1,$1+$1,$6,$7,$8,$9,0*
20,1,$1+$1,$8,$9,$2,$3,0*%
%AMFreePoly0*
4,1,80,0.133683,0.361740,0.143425,0.360022,0.143099,0.358175,0.149267,0.357088,0.149593,0.358935,0.159335,0.357217,0.182793,0.346278,0.194366,0.336567,0.207453,0.329011,0.217167,0.317434,0.222088,0.313305,0.225304,0.307735,0.229439,0.302807,0.231636,0.296768,0.239192,0.283683,0.241816,0.268803,0.246985,0.254601,0.250000,0.237500,0.250000,-0.237500,0.249240,-0.246183,
0.247522,-0.255925,0.245675,-0.255599,0.244588,-0.261767,0.246435,-0.262093,0.244717,-0.271835,0.233778,-0.295293,0.224067,-0.306866,0.216511,-0.319953,0.204934,-0.329667,0.200805,-0.334588,0.195235,-0.337804,0.190307,-0.341939,0.184268,-0.344136,0.171183,-0.351692,0.156303,-0.354316,0.142101,-0.359485,0.125000,-0.362500,0.081066,-0.362500,0.072380,-0.361740,0.067794,-0.360931,
0.068166,-0.358820,0.063155,-0.358382,0.062859,-0.360061,0.046733,-0.357218,0.023274,-0.346279,0.015772,-0.339984,0.006902,-0.335848,-0.007322,-0.325888,-0.213388,-0.119822,-0.218994,-0.113142,-0.221664,-0.109328,-0.219907,-0.108098,-0.223142,-0.104244,-0.224538,-0.105222,-0.233930,-0.091809,-0.242783,-0.067488,-0.243636,-0.057733,-0.246984,-0.048536,-0.250000,-0.031434,-0.250000,0.237500,
-0.249240,0.246183,-0.247522,0.255925,-0.245675,0.255599,-0.244588,0.261767,-0.246435,0.262093,-0.244717,0.271835,-0.233778,0.295293,-0.224067,0.306866,-0.216511,0.319953,-0.204934,0.329667,-0.200805,0.334588,-0.195235,0.337804,-0.190307,0.341939,-0.184268,0.344136,-0.171183,0.351692,-0.156303,0.354316,-0.142101,0.359485,-0.125000,0.362500,0.125000,0.362500,0.133683,0.361740,
0.133683,0.361740,$1*%
%AMFreePoly1*
4,1,80,0.133683,0.361740,0.143425,0.360022,0.143099,0.358175,0.149267,0.357088,0.149593,0.358935,0.159335,0.357217,0.182793,0.346278,0.194366,0.336567,0.207453,0.329011,0.217167,0.317434,0.222088,0.313305,0.225304,0.307735,0.229439,0.302807,0.231636,0.296768,0.239192,0.283683,0.241816,0.268803,0.246985,0.254601,0.250000,0.237500,0.250000,-0.031434,0.249240,-0.040120,
0.248431,-0.044706,0.246320,-0.044334,0.245882,-0.049345,0.247561,-0.049641,0.244718,-0.065767,0.233779,-0.089226,0.227484,-0.096728,0.223348,-0.105598,0.213388,-0.119822,0.007322,-0.325888,0.000642,-0.331494,-0.003172,-0.334164,-0.004402,-0.332407,-0.008256,-0.335642,-0.007278,-0.337038,-0.020691,-0.346430,-0.045012,-0.355283,-0.054767,-0.356136,-0.063964,-0.359484,-0.081066,-0.362500,
-0.125000,-0.362500,-0.133683,-0.361740,-0.143425,-0.360022,-0.143099,-0.358175,-0.149267,-0.357088,-0.149593,-0.358935,-0.159335,-0.357217,-0.182793,-0.346278,-0.194366,-0.336567,-0.207453,-0.329011,-0.217167,-0.317434,-0.222088,-0.313305,-0.225304,-0.307735,-0.229439,-0.302807,-0.231636,-0.296768,-0.239192,-0.283683,-0.241816,-0.268803,-0.246985,-0.254601,-0.250000,-0.237500,-0.250000,0.237500,
-0.249240,0.246183,-0.247522,0.255925,-0.245675,0.255599,-0.244588,0.261767,-0.246435,0.262093,-0.244717,0.271835,-0.233778,0.295293,-0.224067,0.306866,-0.216511,0.319953,-0.204934,0.329667,-0.200805,0.334588,-0.195235,0.337804,-0.190307,0.341939,-0.184268,0.344136,-0.171183,0.351692,-0.156303,0.354316,-0.142101,0.359485,-0.125000,0.362500,0.125000,0.362500,0.133683,0.361740,
0.133683,0.361740,$1*%
%AMFreePoly2*
4,1,80,0.246183,0.249240,0.255925,0.247522,0.255599,0.245675,0.261767,0.244588,0.262093,0.246435,0.271835,0.244717,0.295293,0.233778,0.306866,0.224067,0.319953,0.216511,0.329667,0.204934,0.334588,0.200805,0.337804,0.195235,0.341939,0.190307,0.344136,0.184268,0.351692,0.171183,0.354316,0.156303,0.359485,0.142101,0.362500,0.125000,0.362500,-0.125000,0.361740,-0.133683,
0.360022,-0.143425,0.358175,-0.143099,0.357088,-0.149267,0.358935,-0.149593,0.357217,-0.159335,0.346278,-0.182793,0.336567,-0.194366,0.329011,-0.207453,0.317434,-0.217167,0.313305,-0.222088,0.307735,-0.225304,0.302807,-0.229439,0.296768,-0.231636,0.283683,-0.239192,0.268803,-0.241816,0.254601,-0.246985,0.237500,-0.250000,-0.237500,-0.250000,-0.246183,-0.249240,-0.255925,-0.247522,
-0.255599,-0.245675,-0.261767,-0.244588,-0.262093,-0.246435,-0.271835,-0.244717,-0.295293,-0.233778,-0.306866,-0.224067,-0.319953,-0.216511,-0.329667,-0.204934,-0.334588,-0.200805,-0.337804,-0.195235,-0.341939,-0.190307,-0.344136,-0.184268,-0.351692,-0.171183,-0.354316,-0.156303,-0.359485,-0.142101,-0.362500,-0.125000,-0.362500,-0.081066,-0.361740,-0.072380,-0.360931,-0.067794,-0.358820,-0.068166,
-0.358383,-0.063155,-0.360061,-0.062859,-0.357217,-0.046731,-0.346279,-0.023274,-0.339984,-0.015772,-0.335849,-0.006904,-0.325888,0.007322,-0.119822,0.213388,-0.113142,0.218994,-0.109328,0.221664,-0.108098,0.219907,-0.104244,0.223142,-0.105222,0.224538,-0.091809,0.233930,-0.067488,0.242783,-0.057736,0.243636,-0.048535,0.246985,-0.031434,0.250000,0.237500,0.250000,0.246183,0.249240,
0.246183,0.249240,$1*%
%AMFreePoly3*
4,1,80,0.246183,0.249240,0.255925,0.247522,0.255599,0.245675,0.261767,0.244588,0.262093,0.246435,0.271835,0.244717,0.295293,0.233778,0.306866,0.224067,0.319953,0.216511,0.329667,0.204934,0.334588,0.200805,0.337804,0.195235,0.341939,0.190307,0.344136,0.184268,0.351692,0.171183,0.354316,0.156303,0.359485,0.142101,0.362500,0.125000,0.362500,-0.125000,0.361740,-0.133683,
0.360022,-0.143425,0.358175,-0.143099,0.357088,-0.149267,0.358935,-0.149593,0.357217,-0.159335,0.346278,-0.182793,0.336567,-0.194366,0.329011,-0.207453,0.317434,-0.217167,0.313305,-0.222088,0.307735,-0.225304,0.302807,-0.229439,0.296768,-0.231636,0.283683,-0.239192,0.268803,-0.241816,0.254601,-0.246985,0.237500,-0.250000,-0.031434,-0.250000,-0.040120,-0.249240,-0.044706,-0.248431,
-0.044334,-0.246320,-0.049345,-0.245882,-0.049641,-0.247561,-0.065767,-0.244718,-0.089226,-0.233779,-0.096728,-0.227484,-0.105598,-0.223348,-0.119822,-0.213388,-0.325888,-0.007322,-0.331494,-0.000642,-0.334164,0.003172,-0.332407,0.004402,-0.335642,0.008256,-0.337038,0.007278,-0.346430,0.020691,-0.355283,0.045012,-0.356136,0.054767,-0.359484,0.063964,-0.362500,0.081066,-0.362500,0.125000,
-0.361740,0.133683,-0.360022,0.143425,-0.358175,0.143099,-0.357088,0.149267,-0.358935,0.149593,-0.357217,0.159335,-0.346278,0.182793,-0.336567,0.194366,-0.329011,0.207453,-0.317434,0.217167,-0.313305,0.222088,-0.307735,0.225304,-0.302807,0.229439,-0.296768,0.231636,-0.283683,0.239192,-0.268803,0.241816,-0.254601,0.246985,-0.237500,0.250000,0.237500,0.250000,0.246183,0.249240,
0.246183,0.249240,$1*%
%AMFreePoly4*
4,1,80,-0.072380,0.361740,-0.067794,0.360931,-0.068166,0.358820,-0.063155,0.358383,-0.062859,0.360061,-0.046731,0.357217,-0.023274,0.346279,-0.015772,0.339984,-0.006904,0.335849,0.007322,0.325888,0.213388,0.119822,0.218994,0.113142,0.221664,0.109328,0.219907,0.108098,0.223142,0.104244,0.224538,0.105222,0.233930,0.091809,0.242783,0.067488,0.243636,0.057736,0.246985,0.048535,
0.250000,0.031434,0.250000,-0.237500,0.249240,-0.246183,0.247522,-0.255925,0.245675,-0.255599,0.244588,-0.261767,0.246435,-0.262093,0.244717,-0.271835,0.233778,-0.295293,0.224067,-0.306866,0.216511,-0.319953,0.204934,-0.329667,0.200805,-0.334588,0.195235,-0.337804,0.190307,-0.341939,0.184268,-0.344136,0.171183,-0.351692,0.156303,-0.354316,0.142101,-0.359485,0.125000,-0.362500,
-0.125000,-0.362500,-0.133683,-0.361740,-0.143425,-0.360022,-0.143099,-0.358175,-0.149267,-0.357088,-0.149593,-0.358935,-0.159335,-0.357217,-0.182793,-0.346278,-0.194366,-0.336567,-0.207453,-0.329011,-0.217167,-0.317434,-0.222088,-0.313305,-0.225304,-0.307735,-0.229439,-0.302807,-0.231636,-0.296768,-0.239192,-0.283683,-0.241816,-0.268803,-0.246985,-0.254601,-0.250000,-0.237500,-0.250000,0.237500,
-0.249240,0.246183,-0.247522,0.255925,-0.245675,0.255599,-0.244588,0.261767,-0.246435,0.262093,-0.244717,0.271835,-0.233778,0.295293,-0.224067,0.306866,-0.216511,0.319953,-0.204934,0.329667,-0.200805,0.334588,-0.195235,0.337804,-0.190307,0.341939,-0.184268,0.344136,-0.171183,0.351692,-0.156303,0.354316,-0.142101,0.359485,-0.125000,0.362500,-0.081066,0.362500,-0.072380,0.361740,
-0.072380,0.361740,$1*%
%AMFreePoly5*
4,1,80,0.133683,0.361740,0.143425,0.360022,0.143099,0.358175,0.149267,0.357088,0.149593,0.358935,0.159335,0.357217,0.182793,0.346278,0.194366,0.336567,0.207453,0.329011,0.217167,0.317434,0.222088,0.313305,0.225304,0.307735,0.229439,0.302807,0.231636,0.296768,0.239192,0.283683,0.241816,0.268803,0.246985,0.254601,0.250000,0.237500,0.250000,-0.237500,0.249240,-0.246183,
0.247522,-0.255925,0.245675,-0.255599,0.244588,-0.261767,0.246435,-0.262093,0.244717,-0.271835,0.233778,-0.295293,0.224067,-0.306866,0.216511,-0.319953,0.204934,-0.329667,0.200805,-0.334588,0.195235,-0.337804,0.190307,-0.341939,0.184268,-0.344136,0.171183,-0.351692,0.156303,-0.354316,0.142101,-0.359485,0.125000,-0.362500,-0.125000,-0.362500,-0.133683,-0.361740,-0.143425,-0.360022,
-0.143099,-0.358175,-0.149267,-0.357088,-0.149593,-0.358935,-0.159335,-0.357217,-0.182793,-0.346278,-0.194366,-0.336567,-0.207453,-0.329011,-0.217167,-0.317434,-0.222088,-0.313305,-0.225304,-0.307735,-0.229439,-0.302807,-0.231636,-0.296768,-0.239192,-0.283683,-0.241816,-0.268803,-0.246985,-0.254601,-0.250000,-0.237500,-0.250000,0.031434,-0.249240,0.040120,-0.248431,0.044706,-0.246320,0.044334,
-0.245883,0.049345,-0.247561,0.049641,-0.244717,0.065769,-0.233779,0.089226,-0.227484,0.096728,-0.223349,0.105596,-0.213388,0.119822,-0.007322,0.325888,-0.000642,0.331494,0.003172,0.334164,0.004402,0.332407,0.008256,0.335642,0.007278,0.337038,0.020691,0.346430,0.045012,0.355283,0.054764,0.356136,0.063965,0.359485,0.081066,0.362500,0.125000,0.362500,0.133683,0.361740,
0.133683,0.361740,$1*%
%AMFreePoly6*
4,1,80,0.246183,0.249240,0.255925,0.247522,0.255599,0.245675,0.261767,0.244588,0.262093,0.246435,0.271835,0.244717,0.295293,0.233778,0.306866,0.224067,0.319953,0.216511,0.329667,0.204934,0.334588,0.200805,0.337804,0.195235,0.341939,0.190307,0.344136,0.184268,0.351692,0.171183,0.354316,0.156303,0.359485,0.142101,0.362500,0.125000,0.362500,0.081066,0.361740,0.072380,
0.360931,0.067794,0.358820,0.068166,0.358382,0.063155,0.360061,0.062859,0.357218,0.046733,0.346279,0.023274,0.339984,0.015772,0.335848,0.006902,0.325888,-0.007322,0.119822,-0.213388,0.113142,-0.218994,0.109328,-0.221664,0.108098,-0.219907,0.104244,-0.223142,0.105222,-0.224538,0.091809,-0.233930,0.067488,-0.242783,0.057733,-0.243636,0.048536,-0.246984,0.031434,-0.250000,
-0.237500,-0.250000,-0.246183,-0.249240,-0.255925,-0.247522,-0.255599,-0.245675,-0.261767,-0.244588,-0.262093,-0.246435,-0.271835,-0.244717,-0.295293,-0.233778,-0.306866,-0.224067,-0.319953,-0.216511,-0.329667,-0.204934,-0.334588,-0.200805,-0.337804,-0.195235,-0.341939,-0.190307,-0.344136,-0.184268,-0.351692,-0.171183,-0.354316,-0.156303,-0.359485,-0.142101,-0.362500,-0.125000,-0.362500,0.125000,
-0.361740,0.133683,-0.360022,0.143425,-0.358175,0.143099,-0.357088,0.149267,-0.358935,0.149593,-0.357217,0.159335,-0.346278,0.182793,-0.336567,0.194366,-0.329011,0.207453,-0.317434,0.217167,-0.313305,0.222088,-0.307735,0.225304,-0.302807,0.229439,-0.296768,0.231636,-0.283683,0.239192,-0.268803,0.241816,-0.254601,0.246985,-0.237500,0.250000,0.237500,0.250000,0.246183,0.249240,
0.246183,0.249240,$1*%
%AMFreePoly7*
4,1,80,0.040120,0.249240,0.044706,0.248431,0.044334,0.246320,0.049345,0.245883,0.049641,0.247561,0.065769,0.244717,0.089226,0.233779,0.096728,0.227484,0.105596,0.223349,0.119822,0.213388,0.325888,0.007322,0.331494,0.000642,0.334164,-0.003172,0.332407,-0.004402,0.335642,-0.008256,0.337038,-0.007278,0.346430,-0.020691,0.355283,-0.045012,0.356136,-0.054764,0.359485,-0.063965,
0.362500,-0.081066,0.362500,-0.125000,0.361740,-0.133683,0.360022,-0.143425,0.358175,-0.143099,0.357088,-0.149267,0.358935,-0.149593,0.357217,-0.159335,0.346278,-0.182793,0.336567,-0.194366,0.329011,-0.207453,0.317434,-0.217167,0.313305,-0.222088,0.307735,-0.225304,0.302807,-0.229439,0.296768,-0.231636,0.283683,-0.239192,0.268803,-0.241816,0.254601,-0.246985,0.237500,-0.250000,
-0.237500,-0.250000,-0.246183,-0.249240,-0.255925,-0.247522,-0.255599,-0.245675,-0.261767,-0.244588,-0.262093,-0.246435,-0.271835,-0.244717,-0.295293,-0.233778,-0.306866,-0.224067,-0.319953,-0.216511,-0.329667,-0.204934,-0.334588,-0.200805,-0.337804,-0.195235,-0.341939,-0.190307,-0.344136,-0.184268,-0.351692,-0.171183,-0.354316,-0.156303,-0.359485,-0.142101,-0.362500,-0.125000,-0.362500,0.125000,
-0.361740,0.133683,-0.360022,0.143425,-0.358175,0.143099,-0.357088,0.149267,-0.358935,0.149593,-0.357217,0.159335,-0.346278,0.182793,-0.336567,0.194366,-0.329011,0.207453,-0.317434,0.217167,-0.313305,0.222088,-0.307735,0.225304,-0.302807,0.229439,-0.296768,0.231636,-0.283683,0.239192,-0.268803,0.241816,-0.254601,0.246985,-0.237500,0.250000,0.031434,0.250000,0.040120,0.249240,
0.040120,0.249240,$1*%
G04 Aperture macros list end*
%ADD10RoundRect,0.250000X-0.200000X-0.275000X0.200000X-0.275000X0.200000X0.275000X-0.200000X0.275000X0*%
%ADD11RoundRect,0.275000X0.250000X-0.225000X0.250000X0.225000X-0.250000X0.225000X-0.250000X-0.225000X0*%
%ADD12RoundRect,0.250000X0.200000X0.275000X-0.200000X0.275000X-0.200000X-0.275000X0.200000X-0.275000X0*%
%ADD13C,1.400000*%
%ADD14RoundRect,0.250000X0.275000X-0.200000X0.275000X0.200000X-0.275000X0.200000X-0.275000X-0.200000X0*%
%ADD15O,1.450000X1.450000*%
%ADD16RoundRect,0.050000X-0.675000X-0.675000X0.675000X-0.675000X0.675000X0.675000X-0.675000X0.675000X0*%
%ADD17RoundRect,0.050000X0.175000X-0.250000X0.175000X0.250000X-0.175000X0.250000X-0.175000X-0.250000X0*%
%ADD18RoundRect,0.250000X-0.275000X0.200000X-0.275000X-0.200000X0.275000X-0.200000X0.275000X0.200000X0*%
%ADD19RoundRect,0.200000X0.150000X-0.587500X0.150000X0.587500X-0.150000X0.587500X-0.150000X-0.587500X0*%
%ADD20RoundRect,0.200000X0.150000X-0.650000X0.150000X0.650000X-0.150000X0.650000X-0.150000X-0.650000X0*%
%ADD21RoundRect,0.050000X0.000000X3.959798X-3.959798X0.000000X0.000000X-3.959798X3.959798X0.000000X0*%
%ADD22RoundRect,0.112500X-0.220971X0.309359X-0.309359X0.220971X0.220971X-0.309359X0.309359X-0.220971X0*%
%ADD23RoundRect,0.112500X0.220971X0.309359X-0.309359X-0.220971X-0.220971X-0.309359X0.309359X0.220971X0*%
%ADD24RoundRect,0.050000X-0.600000X0.450000X-0.600000X-0.450000X0.600000X-0.450000X0.600000X0.450000X0*%
%ADD25RoundRect,0.050000X0.675000X-0.675000X0.675000X0.675000X-0.675000X0.675000X-0.675000X-0.675000X0*%
%ADD26RoundRect,0.300001X0.924999X-0.499999X0.924999X0.499999X-0.924999X0.499999X-0.924999X-0.499999X0*%
%ADD27RoundRect,0.050000X-1.300000X-1.550000X1.300000X-1.550000X1.300000X1.550000X-1.300000X1.550000X0*%
%ADD28RoundRect,0.050000X-0.775000X-0.300000X0.775000X-0.300000X0.775000X0.300000X-0.775000X0.300000X0*%
%ADD29RoundRect,0.275000X-0.250000X0.225000X-0.250000X-0.225000X0.250000X-0.225000X0.250000X0.225000X0*%
%ADD30RoundRect,0.112500X-0.062500X0.100000X-0.062500X-0.100000X0.062500X-0.100000X0.062500X0.100000X0*%
%ADD31RoundRect,0.112500X0.100000X0.062500X-0.100000X0.062500X-0.100000X-0.062500X0.100000X-0.062500X0*%
%ADD32RoundRect,0.112500X0.062500X-0.100000X0.062500X0.100000X-0.062500X0.100000X-0.062500X-0.100000X0*%
%ADD33RoundRect,0.112500X-0.100000X-0.062500X0.100000X-0.062500X0.100000X0.062500X-0.100000X0.062500X0*%
%ADD34RoundRect,0.050000X0.675000X0.675000X-0.675000X0.675000X-0.675000X-0.675000X0.675000X-0.675000X0*%
%ADD35RoundRect,0.425000X-0.375000X-0.625000X0.375000X-0.625000X0.375000X0.625000X-0.375000X0.625000X0*%
%ADD36RoundRect,0.275000X-0.225000X-0.250000X0.225000X-0.250000X0.225000X0.250000X-0.225000X0.250000X0*%
%ADD37RoundRect,0.268750X0.256250X-0.218750X0.256250X0.218750X-0.256250X0.218750X-0.256250X-0.218750X0*%
%ADD38RoundRect,0.050000X-1.100000X0.750000X-1.100000X-0.750000X1.100000X-0.750000X1.100000X0.750000X0*%
%ADD39RoundRect,0.275000X0.225000X0.250000X-0.225000X0.250000X-0.225000X-0.250000X0.225000X-0.250000X0*%
%ADD40RoundRect,0.268750X-0.218750X-0.256250X0.218750X-0.256250X0.218750X0.256250X-0.218750X0.256250X0*%
%ADD41RoundRect,0.268750X-0.256250X0.218750X-0.256250X-0.218750X0.256250X-0.218750X0.256250X0.218750X0*%
%ADD42RoundRect,0.625000X-0.575000X-0.575000X0.575000X-0.575000X0.575000X0.575000X-0.575000X0.575000X0*%
%ADD43C,5.700000*%
%ADD44RoundRect,0.200000X-0.150000X0.512500X-0.150000X-0.512500X0.150000X-0.512500X0.150000X0.512500X0*%
%ADD45RoundRect,0.050000X-0.600000X0.700000X-0.600000X-0.700000X0.600000X-0.700000X0.600000X0.700000X0*%
%ADD46RoundRect,0.050000X0.450000X0.600000X-0.450000X0.600000X-0.450000X-0.600000X0.450000X-0.600000X0*%
%ADD47RoundRect,0.300000X0.325000X0.650000X-0.325000X0.650000X-0.325000X-0.650000X0.325000X-0.650000X0*%
%ADD48RoundRect,0.050000X1.000000X0.750000X-1.000000X0.750000X-1.000000X-0.750000X1.000000X-0.750000X0*%
%ADD49RoundRect,0.050000X1.000000X1.900000X-1.000000X1.900000X-1.000000X-1.900000X1.000000X-1.900000X0*%
%ADD50O,1.600000X2.100000*%
%ADD51RoundRect,0.050000X-1.050000X0.800000X-1.050000X-0.800000X1.050000X-0.800000X1.050000X0.800000X0*%
%ADD52RoundRect,0.050000X0.200000X0.700000X-0.200000X0.700000X-0.200000X-0.700000X0.200000X-0.700000X0*%
%ADD53C,0.600000*%
%ADD54RoundRect,0.425000X0.375000X0.625000X-0.375000X0.625000X-0.375000X-0.625000X0.375000X-0.625000X0*%
%ADD55O,1.100000X1.100000*%
%ADD56RoundRect,0.050000X0.500000X0.500000X-0.500000X0.500000X-0.500000X-0.500000X0.500000X-0.500000X0*%
%ADD57RoundRect,0.300000X0.350000X0.650000X-0.350000X0.650000X-0.350000X-0.650000X0.350000X-0.650000X0*%
%ADD58RoundRect,0.200000X0.150000X0.625000X-0.150000X0.625000X-0.150000X-0.625000X0.150000X-0.625000X0*%
%ADD59RoundRect,0.268750X0.218750X0.256250X-0.218750X0.256250X-0.218750X-0.256250X0.218750X-0.256250X0*%
%ADD60RoundRect,0.300000X-0.250000X-0.475000X0.250000X-0.475000X0.250000X0.475000X-0.250000X0.475000X0*%
%ADD61FreePoly0,0.000000*%
%ADD62RoundRect,0.150000X-0.100000X-0.212500X0.100000X-0.212500X0.100000X0.212500X-0.100000X0.212500X0*%
%ADD63FreePoly1,0.000000*%
%ADD64FreePoly2,0.000000*%
%ADD65RoundRect,0.150000X-0.212500X-0.100000X0.212500X-0.100000X0.212500X0.100000X-0.212500X0.100000X0*%
%ADD66FreePoly3,0.000000*%
%ADD67FreePoly4,0.000000*%
%ADD68FreePoly5,0.000000*%
%ADD69FreePoly6,0.000000*%
%ADD70FreePoly7,0.000000*%
G04 APERTURE END LIST*
D10*
%TO.C,R23*%
X168100000Y-110800000D03*
X166450000Y-110800000D03*
%TD*%
D11*
%TO.C,C13*%
X138250000Y-103975000D03*
X138250000Y-105525000D03*
%TD*%
D12*
%TO.C,R14*%
X131675000Y-112250000D03*
X133325000Y-112250000D03*
%TD*%
D13*
%TO.C,T3*%
X167500000Y-121500000D03*
%TD*%
D14*
%TO.C,R28*%
X166500000Y-96925000D03*
X166500000Y-98575000D03*
%TD*%
D15*
%TO.C,J9*%
X169000000Y-107250000D03*
X169000000Y-105250000D03*
D16*
X169000000Y-103250000D03*
%TD*%
D17*
%TO.C,U7*%
X158975000Y-113525000D03*
X158325000Y-113525000D03*
X157675000Y-113525000D03*
X157025000Y-113525000D03*
X157025000Y-114975000D03*
X157675000Y-114975000D03*
X158325000Y-114975000D03*
X158975000Y-114975000D03*
%TD*%
D18*
%TO.C,R17*%
X138250000Y-109075000D03*
X138250000Y-107425000D03*
%TD*%
D11*
%TO.C,C9*%
X138500000Y-89475000D03*
X138500000Y-91025000D03*
%TD*%
D19*
%TO.C,Q1*%
X153750000Y-96562500D03*
X154700000Y-98437500D03*
X152800000Y-98437500D03*
%TD*%
D20*
%TO.C,U4*%
X140270000Y-104400000D03*
X141540000Y-104400000D03*
X142810000Y-104400000D03*
X144080000Y-104400000D03*
X144080000Y-111600000D03*
X142810000Y-111600000D03*
X141540000Y-111600000D03*
X140270000Y-111600000D03*
%TD*%
D18*
%TO.C,R2*%
X132550000Y-82825000D03*
X132550000Y-81175000D03*
%TD*%
D21*
%TO.C,U1*%
X150750000Y-110500000D03*
D22*
X155125223Y-110986136D03*
X154771670Y-111339689D03*
X154418116Y-111693243D03*
X154064563Y-112046796D03*
X153711010Y-112400349D03*
X153357456Y-112753903D03*
X153003903Y-113107456D03*
X152650349Y-113461010D03*
X152296796Y-113814563D03*
X151943243Y-114168116D03*
X151589689Y-114521670D03*
X151236136Y-114875223D03*
D23*
X150263864Y-114875223D03*
X149910311Y-114521670D03*
X149556757Y-114168116D03*
X149203204Y-113814563D03*
X148849651Y-113461010D03*
X148496097Y-113107456D03*
X148142544Y-112753903D03*
X147788990Y-112400349D03*
X147435437Y-112046796D03*
X147081884Y-111693243D03*
X146728330Y-111339689D03*
X146374777Y-110986136D03*
D22*
X146374777Y-110013864D03*
X146728330Y-109660311D03*
X147081884Y-109306757D03*
X147435437Y-108953204D03*
X147788990Y-108599651D03*
X148142544Y-108246097D03*
X148496097Y-107892544D03*
X148849651Y-107538990D03*
X149203204Y-107185437D03*
X149556757Y-106831884D03*
X149910311Y-106478330D03*
X150263864Y-106124777D03*
D23*
X151236136Y-106124777D03*
X151589689Y-106478330D03*
X151943243Y-106831884D03*
X152296796Y-107185437D03*
X152650349Y-107538990D03*
X153003903Y-107892544D03*
X153357456Y-108246097D03*
X153711010Y-108599651D03*
X154064563Y-108953204D03*
X154418116Y-109306757D03*
X154771670Y-109660311D03*
X155125223Y-110013864D03*
%TD*%
D14*
%TO.C,R1*%
X135000000Y-81175000D03*
X135000000Y-82825000D03*
%TD*%
D24*
%TO.C,D7*%
X154500000Y-94650000D03*
X154500000Y-91350000D03*
%TD*%
D15*
%TO.C,J4*%
X160250000Y-123000000D03*
X158250000Y-123000000D03*
X156250000Y-123000000D03*
D25*
X154250000Y-123000000D03*
%TD*%
D26*
%TO.C,C11*%
X139000000Y-98625000D03*
X139000000Y-101875000D03*
%TD*%
D18*
%TO.C,R12*%
X155300000Y-115025000D03*
X155300000Y-113375000D03*
%TD*%
%TO.C,R6*%
X156500000Y-104825000D03*
X156500000Y-103175000D03*
%TD*%
%TO.C,R4*%
X143400000Y-100050000D03*
X143400000Y-98400000D03*
%TD*%
D10*
%TO.C,R15*%
X140250000Y-113750000D03*
X138600000Y-113750000D03*
%TD*%
D13*
%TO.C,T2*%
X167500000Y-82500000D03*
%TD*%
D14*
%TO.C,R7*%
X151250000Y-121675000D03*
X151250000Y-123325000D03*
%TD*%
D15*
%TO.C,J11*%
X169000000Y-89250000D03*
X169000000Y-87250000D03*
D16*
X169000000Y-85250000D03*
%TD*%
D27*
%TO.C,U2*%
X141250000Y-94750000D03*
D28*
X143950000Y-92845000D03*
X143950000Y-94115000D03*
X143950000Y-95385000D03*
X143950000Y-96655000D03*
X138550000Y-96655000D03*
X138550000Y-95385000D03*
X138550000Y-94115000D03*
X138550000Y-92845000D03*
%TD*%
D29*
%TO.C,C19*%
X159200000Y-120375000D03*
X159200000Y-118825000D03*
%TD*%
D11*
%TO.C,C3*%
X146000000Y-93975000D03*
X146000000Y-95525000D03*
%TD*%
D14*
%TO.C,R22*%
X133750000Y-121175000D03*
X133750000Y-122825000D03*
%TD*%
D30*
%TO.C,U8*%
X153650000Y-117937500D03*
X154150000Y-117937500D03*
X154650000Y-117937500D03*
X155150000Y-117937500D03*
D31*
X155662500Y-118450000D03*
X155662500Y-118950000D03*
X155662500Y-119450000D03*
X155662500Y-119950000D03*
D32*
X155150000Y-120462500D03*
X154650000Y-120462500D03*
X154150000Y-120462500D03*
X153650000Y-120462500D03*
D33*
X153137500Y-119950000D03*
X153137500Y-119450000D03*
X153137500Y-118950000D03*
X153137500Y-118450000D03*
%TD*%
D15*
%TO.C,J7*%
X127000000Y-109750000D03*
X127000000Y-111750000D03*
D34*
X127000000Y-113750000D03*
%TD*%
D35*
%TO.C,SW2*%
X131825000Y-122000000D03*
X127675000Y-122000000D03*
%TD*%
D36*
%TO.C,C12*%
X132775000Y-100000000D03*
X131225000Y-100000000D03*
%TD*%
D37*
%TO.C,D6*%
X129500000Y-108962500D03*
X129500000Y-110537500D03*
%TD*%
D13*
%TO.C,T1*%
X128500000Y-82500000D03*
%TD*%
D10*
%TO.C,R16*%
X140225000Y-115600000D03*
X138575000Y-115600000D03*
%TD*%
D38*
%TO.C,L1*%
X133250000Y-97950000D03*
X133250000Y-91550000D03*
%TD*%
D14*
%TO.C,R27*%
X166500000Y-102450000D03*
X166500000Y-104100000D03*
%TD*%
D39*
%TO.C,CL2*%
X158200000Y-101000000D03*
X159750000Y-101000000D03*
%TD*%
D40*
%TO.C,D4*%
X136537500Y-112250000D03*
X134962500Y-112250000D03*
%TD*%
D41*
%TO.C,D5*%
X166400000Y-114387500D03*
X166400000Y-112812500D03*
%TD*%
D12*
%TO.C,R20*%
X163000000Y-121200000D03*
X164650000Y-121200000D03*
%TD*%
D42*
%TO.C,BZ1*%
X157200000Y-98550000D03*
X157200000Y-91450000D03*
X164300000Y-98550000D03*
X164300000Y-91450000D03*
%TD*%
D14*
%TO.C,R11*%
X136750000Y-118925000D03*
X136750000Y-120575000D03*
%TD*%
D29*
%TO.C,C1*%
X146000000Y-105975000D03*
X146000000Y-104425000D03*
%TD*%
D12*
%TO.C,R19*%
X161175000Y-112500000D03*
X162825000Y-112500000D03*
%TD*%
D15*
%TO.C,J6*%
X169000000Y-117500000D03*
X169000000Y-115500000D03*
D16*
X169000000Y-113500000D03*
%TD*%
D12*
%TO.C,R5*%
X141775000Y-101800000D03*
X143425000Y-101800000D03*
%TD*%
D39*
%TO.C,CL1*%
X158225000Y-107000000D03*
X159775000Y-107000000D03*
%TD*%
D10*
%TO.C,R13*%
X136575000Y-109250000D03*
X134925000Y-109250000D03*
%TD*%
D39*
%TO.C,C10*%
X134725000Y-99750000D03*
X136275000Y-99750000D03*
%TD*%
D14*
%TO.C,R3*%
X141600000Y-98375000D03*
X141600000Y-100025000D03*
%TD*%
D43*
%TO.C,H2*%
X163000000Y-87000000D03*
%TD*%
D15*
%TO.C,J10*%
X169000000Y-98500000D03*
X169000000Y-96500000D03*
D16*
X169000000Y-94500000D03*
%TD*%
D43*
%TO.C,H3*%
X133000000Y-117000000D03*
%TD*%
D44*
%TO.C,U9*%
X153950000Y-88537500D03*
X153000000Y-88537500D03*
X152050000Y-88537500D03*
X152050000Y-86262500D03*
X153000000Y-86262500D03*
X153950000Y-86262500D03*
%TD*%
D45*
%TO.C,Y1*%
X159850000Y-102900000D03*
X159850000Y-105100000D03*
X158150000Y-105100000D03*
X158150000Y-102900000D03*
%TD*%
D18*
%TO.C,R10*%
X144750000Y-120075000D03*
X144750000Y-118425000D03*
%TD*%
D46*
%TO.C,D1*%
X140600000Y-90750000D03*
X143900000Y-90750000D03*
%TD*%
D47*
%TO.C,C2*%
X146025000Y-91750000D03*
X148975000Y-91750000D03*
%TD*%
D48*
%TO.C,U3*%
X135900000Y-102200000D03*
X135900000Y-104500000D03*
D49*
X129600000Y-104500000D03*
D48*
X135900000Y-106800000D03*
%TD*%
D43*
%TO.C,H4*%
X163000000Y-117000000D03*
%TD*%
D50*
%TO.C,J5*%
X151220000Y-81638500D03*
D51*
X150950000Y-84188500D03*
X157150000Y-84188500D03*
D50*
X156880000Y-81638500D03*
D52*
X152750000Y-84288500D03*
X153400000Y-84288500D03*
X154050000Y-84288500D03*
X154700000Y-84288500D03*
X155350000Y-84288500D03*
D53*
X156050000Y-83988500D03*
X152050000Y-83988500D03*
%TD*%
D54*
%TO.C,SW1*%
X138675000Y-118250000D03*
X142825000Y-118250000D03*
%TD*%
D14*
%TO.C,R29*%
X166500000Y-93675000D03*
X166500000Y-95325000D03*
%TD*%
%TO.C,R8*%
X151250000Y-118350000D03*
X151250000Y-120000000D03*
%TD*%
D15*
%TO.C,J8*%
X142250000Y-123000000D03*
X140250000Y-123000000D03*
X138250000Y-123000000D03*
D25*
X136250000Y-123000000D03*
%TD*%
D18*
%TO.C,R24*%
X129500000Y-113850000D03*
X129500000Y-112200000D03*
%TD*%
D29*
%TO.C,C20*%
X157200000Y-120375000D03*
X157200000Y-118825000D03*
%TD*%
D55*
%TO.C,J2*%
X147355000Y-117770000D03*
X148625000Y-117770000D03*
X147355000Y-119040000D03*
X148625000Y-119040000D03*
X147355000Y-120310000D03*
X148625000Y-120310000D03*
X147355000Y-121580000D03*
X148625000Y-121580000D03*
X147355000Y-122850000D03*
D56*
X148625000Y-122850000D03*
%TD*%
D57*
%TO.C,J1*%
X146800000Y-80875000D03*
X137200000Y-80875000D03*
D58*
X138500000Y-84750000D03*
X139500000Y-84750000D03*
X140500000Y-84750000D03*
X141500000Y-84750000D03*
X142500000Y-84750000D03*
X143500000Y-84750000D03*
X144500000Y-84750000D03*
X145500000Y-84750000D03*
%TD*%
D18*
%TO.C,R25*%
X152500000Y-94825000D03*
X152500000Y-93175000D03*
%TD*%
D39*
%TO.C,C4*%
X156625000Y-110400000D03*
X158175000Y-110400000D03*
%TD*%
D18*
%TO.C,R9*%
X144750000Y-123325000D03*
X144750000Y-121675000D03*
%TD*%
D46*
%TO.C,D2*%
X155600000Y-86500000D03*
X158900000Y-86500000D03*
%TD*%
D14*
%TO.C,R26*%
X166500000Y-105650000D03*
X166500000Y-107300000D03*
%TD*%
D59*
%TO.C,D3*%
X131812500Y-109250000D03*
X133387500Y-109250000D03*
%TD*%
D12*
%TO.C,R21*%
X163000000Y-122900000D03*
X164650000Y-122900000D03*
%TD*%
D60*
%TO.C,FB1*%
X138900000Y-87250000D03*
X137000000Y-87250000D03*
%TD*%
D61*
%TO.C,U5*%
X147500000Y-101087500D03*
D62*
X148000000Y-101087500D03*
D63*
X148500000Y-101087500D03*
D64*
X149162500Y-101250000D03*
D65*
X149162500Y-101750000D03*
X149162500Y-102250000D03*
D66*
X149162500Y-102750000D03*
D67*
X148500000Y-102912500D03*
D62*
X148000000Y-102912500D03*
D68*
X147500000Y-102912500D03*
D69*
X146837500Y-102750000D03*
D65*
X146837500Y-102250000D03*
X146837500Y-101750000D03*
D70*
X146837500Y-101250000D03*
%TD*%
D43*
%TO.C,H1*%
X133000000Y-87000000D03*
%TD*%
D12*
%TO.C,R18*%
X147175000Y-99500000D03*
X148825000Y-99500000D03*
%TD*%
G36*
X151361983Y-113919939D02*
G01*
X151361465Y-113921871D01*
X151308666Y-113974671D01*
X151287442Y-114020189D01*
X151300344Y-114068337D01*
X151341283Y-114097003D01*
X151360492Y-114097632D01*
X151360817Y-114097669D01*
X151365413Y-114098583D01*
X151366917Y-114099902D01*
X151366527Y-114101864D01*
X151365413Y-114102507D01*
X151326446Y-114110260D01*
X151290443Y-114134315D01*
X151202334Y-114222424D01*
X151178279Y-114258427D01*
X151170526Y-114297394D01*
X151169207Y-114298898D01*
X151167245Y-114298508D01*
X151166602Y-114297394D01*
X151164752Y-114288095D01*
X151163487Y-114287665D01*
X151163014Y-114286650D01*
X151158445Y-114256965D01*
X151120968Y-114224100D01*
X151070999Y-114223011D01*
X151042778Y-114240560D01*
X150955114Y-114328224D01*
X150933889Y-114373741D01*
X150946790Y-114421890D01*
X150987730Y-114450555D01*
X151006937Y-114451185D01*
X151007261Y-114451222D01*
X151011859Y-114452136D01*
X151013363Y-114453455D01*
X151012973Y-114455417D01*
X151011859Y-114456060D01*
X150972893Y-114463813D01*
X150936890Y-114487868D01*
X150848781Y-114575977D01*
X150826596Y-114609181D01*
X150824802Y-114610066D01*
X150823139Y-114608955D01*
X150822971Y-114607680D01*
X150824748Y-114598744D01*
X150817109Y-114549107D01*
X150779576Y-114516192D01*
X150764144Y-114514842D01*
X150762505Y-114513695D01*
X150762401Y-114512834D01*
X150761372Y-114512630D01*
X150753444Y-114513849D01*
X150752966Y-114513864D01*
X150738696Y-114512616D01*
X150737714Y-114512811D01*
X150737974Y-114514117D01*
X150737331Y-114516011D01*
X150736316Y-114516484D01*
X150711735Y-114520265D01*
X150678817Y-114557795D01*
X150675238Y-114598676D01*
X150677029Y-114607680D01*
X150676386Y-114609574D01*
X150674424Y-114609964D01*
X150673404Y-114609181D01*
X150651219Y-114575977D01*
X150563110Y-114487868D01*
X150527107Y-114463813D01*
X150488140Y-114456060D01*
X150486636Y-114454741D01*
X150487026Y-114452779D01*
X150488140Y-114452136D01*
X150497441Y-114450286D01*
X150497869Y-114449024D01*
X150498884Y-114448550D01*
X150528569Y-114443982D01*
X150561436Y-114406505D01*
X150562527Y-114356536D01*
X150544857Y-114328119D01*
X150544791Y-114326120D01*
X150546490Y-114325064D01*
X150547969Y-114325649D01*
X150715919Y-114493599D01*
X150731645Y-114504107D01*
X150750000Y-114507757D01*
X150768355Y-114504107D01*
X150784081Y-114493599D01*
X151358637Y-113919043D01*
X151360569Y-113918525D01*
X151361983Y-113919939D01*
G37*
G36*
X149487306Y-113264986D02*
G01*
X150459887Y-114237567D01*
X150460405Y-114239499D01*
X150458991Y-114240913D01*
X150457628Y-114240794D01*
X150411791Y-114219421D01*
X150363643Y-114232323D01*
X150334977Y-114273262D01*
X150334348Y-114292475D01*
X150334311Y-114292800D01*
X150333398Y-114297393D01*
X150332079Y-114298897D01*
X150330117Y-114298507D01*
X150329474Y-114297393D01*
X150321721Y-114258427D01*
X150297666Y-114222424D01*
X150209557Y-114134315D01*
X150173554Y-114110260D01*
X150134587Y-114102507D01*
X150133083Y-114101188D01*
X150133473Y-114099226D01*
X150134587Y-114098583D01*
X150143887Y-114096733D01*
X150144316Y-114095469D01*
X150145331Y-114094996D01*
X150175013Y-114090429D01*
X150207881Y-114052954D01*
X150208974Y-114002985D01*
X150191423Y-113974760D01*
X150103755Y-113887092D01*
X150058238Y-113865867D01*
X150010089Y-113878768D01*
X149981424Y-113919708D01*
X149980795Y-113938919D01*
X149980758Y-113939244D01*
X149979844Y-113943840D01*
X149978525Y-113945344D01*
X149976563Y-113944954D01*
X149975920Y-113943840D01*
X149968167Y-113904873D01*
X149944112Y-113868870D01*
X149856003Y-113780761D01*
X149820000Y-113756706D01*
X149781033Y-113748953D01*
X149779529Y-113747634D01*
X149779919Y-113745672D01*
X149781033Y-113745029D01*
X149790333Y-113743179D01*
X149790762Y-113741915D01*
X149791777Y-113741442D01*
X149821459Y-113736875D01*
X149854327Y-113699400D01*
X149855420Y-113649431D01*
X149837869Y-113621206D01*
X149750202Y-113533539D01*
X149704685Y-113512314D01*
X149656536Y-113525215D01*
X149627871Y-113566155D01*
X149627242Y-113585366D01*
X149627205Y-113585691D01*
X149626291Y-113590287D01*
X149624972Y-113591791D01*
X149623010Y-113591401D01*
X149622367Y-113590287D01*
X149614614Y-113551320D01*
X149590559Y-113515317D01*
X149502450Y-113427208D01*
X149466447Y-113403153D01*
X149427480Y-113395400D01*
X149425976Y-113394081D01*
X149426366Y-113392119D01*
X149427480Y-113391476D01*
X149436780Y-113389626D01*
X149437209Y-113388362D01*
X149438224Y-113387889D01*
X149467914Y-113383317D01*
X149500777Y-113345839D01*
X149501864Y-113295870D01*
X149484194Y-113267456D01*
X149484128Y-113265457D01*
X149485826Y-113264401D01*
X149487306Y-113264986D01*
G37*
G36*
X153076700Y-112205222D02*
G01*
X153076581Y-112206585D01*
X153055207Y-112252421D01*
X153068108Y-112300570D01*
X153109048Y-112329235D01*
X153128261Y-112329865D01*
X153128586Y-112329902D01*
X153133181Y-112330816D01*
X153134685Y-112332135D01*
X153134295Y-112334097D01*
X153133181Y-112334740D01*
X153094213Y-112342493D01*
X153058210Y-112366548D01*
X152970101Y-112454657D01*
X152946046Y-112490660D01*
X152938293Y-112529627D01*
X152936974Y-112531131D01*
X152935012Y-112530741D01*
X152934369Y-112529627D01*
X152932519Y-112520328D01*
X152931254Y-112519898D01*
X152930781Y-112518883D01*
X152926211Y-112489196D01*
X152888734Y-112456331D01*
X152838765Y-112455243D01*
X152810545Y-112472792D01*
X152722880Y-112560457D01*
X152701655Y-112605974D01*
X152714556Y-112654123D01*
X152755496Y-112682788D01*
X152774705Y-112683418D01*
X152775029Y-112683455D01*
X152779626Y-112684369D01*
X152781130Y-112685688D01*
X152780740Y-112687650D01*
X152779626Y-112688293D01*
X152740660Y-112696046D01*
X152704657Y-112720101D01*
X152616548Y-112808210D01*
X152592493Y-112844213D01*
X152584740Y-112883180D01*
X152583421Y-112884684D01*
X152581459Y-112884294D01*
X152580816Y-112883180D01*
X152578966Y-112873881D01*
X152577701Y-112873451D01*
X152577228Y-112872436D01*
X152572658Y-112842749D01*
X152535181Y-112809884D01*
X152485212Y-112808796D01*
X152456992Y-112826345D01*
X152369326Y-112914011D01*
X152348101Y-112959528D01*
X152361002Y-113007677D01*
X152401942Y-113036342D01*
X152421151Y-113036972D01*
X152421475Y-113037009D01*
X152426072Y-113037923D01*
X152427576Y-113039242D01*
X152427186Y-113041204D01*
X152426072Y-113041847D01*
X152387106Y-113049600D01*
X152351103Y-113073655D01*
X152262994Y-113161764D01*
X152238939Y-113197767D01*
X152231186Y-113236734D01*
X152229867Y-113238238D01*
X152227905Y-113237848D01*
X152227262Y-113236734D01*
X152225412Y-113227435D01*
X152224147Y-113227005D01*
X152223674Y-113225990D01*
X152219104Y-113196303D01*
X152181627Y-113163438D01*
X152131658Y-113162350D01*
X152103438Y-113179899D01*
X152015773Y-113267564D01*
X151994548Y-113313081D01*
X152007449Y-113361230D01*
X152048389Y-113389895D01*
X152067598Y-113390525D01*
X152067922Y-113390562D01*
X152072519Y-113391476D01*
X152074023Y-113392795D01*
X152073633Y-113394757D01*
X152072519Y-113395400D01*
X152033553Y-113403153D01*
X151997550Y-113427208D01*
X151909441Y-113515317D01*
X151885386Y-113551320D01*
X151877633Y-113590287D01*
X151876314Y-113591791D01*
X151874352Y-113591401D01*
X151873709Y-113590287D01*
X151871859Y-113580988D01*
X151870594Y-113580558D01*
X151870121Y-113579543D01*
X151865551Y-113549856D01*
X151828074Y-113516991D01*
X151778105Y-113515903D01*
X151749885Y-113533452D01*
X151662220Y-113621117D01*
X151640995Y-113666634D01*
X151653896Y-113714783D01*
X151694836Y-113743448D01*
X151714045Y-113744078D01*
X151714369Y-113744115D01*
X151718966Y-113745029D01*
X151720470Y-113746348D01*
X151720080Y-113748310D01*
X151718966Y-113748953D01*
X151680000Y-113756706D01*
X151643997Y-113780761D01*
X151555888Y-113868870D01*
X151531833Y-113904873D01*
X151524080Y-113943840D01*
X151522761Y-113945344D01*
X151520799Y-113944954D01*
X151520156Y-113943840D01*
X151518306Y-113934541D01*
X151517041Y-113934111D01*
X151516568Y-113933096D01*
X151511998Y-113903409D01*
X151474521Y-113870544D01*
X151424552Y-113869456D01*
X151396135Y-113887127D01*
X151394136Y-113887193D01*
X151393080Y-113885494D01*
X151393665Y-113884015D01*
X153073354Y-112204326D01*
X153075286Y-112203808D01*
X153076700Y-112205222D01*
G37*
G36*
X149133753Y-112911433D02*
G01*
X149399228Y-113176908D01*
X149399746Y-113178840D01*
X149398332Y-113180254D01*
X149396969Y-113180135D01*
X149351133Y-113158761D01*
X149302984Y-113171662D01*
X149274319Y-113212602D01*
X149273689Y-113231815D01*
X149273652Y-113232140D01*
X149272738Y-113236735D01*
X149271419Y-113238239D01*
X149269457Y-113237849D01*
X149268814Y-113236735D01*
X149261061Y-113197767D01*
X149237006Y-113161764D01*
X149148897Y-113073655D01*
X149112894Y-113049600D01*
X149073927Y-113041847D01*
X149072423Y-113040528D01*
X149072813Y-113038566D01*
X149073927Y-113037923D01*
X149083227Y-113036073D01*
X149083656Y-113034809D01*
X149084671Y-113034336D01*
X149114361Y-113029764D01*
X149147224Y-112992286D01*
X149148311Y-112942317D01*
X149130641Y-112913903D01*
X149130575Y-112911904D01*
X149132273Y-112910848D01*
X149133753Y-112911433D01*
G37*
G36*
X147365985Y-111143665D02*
G01*
X149045674Y-112823354D01*
X149046192Y-112825286D01*
X149044778Y-112826700D01*
X149043415Y-112826581D01*
X148997579Y-112805207D01*
X148949430Y-112818108D01*
X148920765Y-112859048D01*
X148920135Y-112878261D01*
X148920098Y-112878586D01*
X148919184Y-112883181D01*
X148917865Y-112884685D01*
X148915903Y-112884295D01*
X148915260Y-112883181D01*
X148907507Y-112844213D01*
X148883452Y-112808210D01*
X148795343Y-112720101D01*
X148759340Y-112696046D01*
X148720373Y-112688293D01*
X148718869Y-112686974D01*
X148719259Y-112685012D01*
X148720373Y-112684369D01*
X148729672Y-112682519D01*
X148730102Y-112681254D01*
X148731117Y-112680781D01*
X148760804Y-112676211D01*
X148793669Y-112638734D01*
X148794757Y-112588765D01*
X148777208Y-112560545D01*
X148689543Y-112472880D01*
X148644026Y-112451655D01*
X148595877Y-112464556D01*
X148567212Y-112505496D01*
X148566582Y-112524705D01*
X148566545Y-112525029D01*
X148565631Y-112529626D01*
X148564312Y-112531130D01*
X148562350Y-112530740D01*
X148561707Y-112529626D01*
X148553954Y-112490660D01*
X148529899Y-112454657D01*
X148441790Y-112366548D01*
X148405787Y-112342493D01*
X148366820Y-112334740D01*
X148365316Y-112333421D01*
X148365706Y-112331459D01*
X148366820Y-112330816D01*
X148376119Y-112328966D01*
X148376549Y-112327701D01*
X148377564Y-112327228D01*
X148407251Y-112322658D01*
X148440116Y-112285181D01*
X148441204Y-112235212D01*
X148423655Y-112206992D01*
X148335989Y-112119326D01*
X148290472Y-112098101D01*
X148242323Y-112111002D01*
X148213658Y-112151942D01*
X148213028Y-112171151D01*
X148212991Y-112171475D01*
X148212077Y-112176072D01*
X148210758Y-112177576D01*
X148208796Y-112177186D01*
X148208153Y-112176072D01*
X148200400Y-112137106D01*
X148176345Y-112101103D01*
X148088236Y-112012994D01*
X148052233Y-111988939D01*
X148013266Y-111981186D01*
X148011762Y-111979867D01*
X148012152Y-111977905D01*
X148013266Y-111977262D01*
X148022565Y-111975412D01*
X148022995Y-111974147D01*
X148024010Y-111973674D01*
X148053697Y-111969104D01*
X148086562Y-111931627D01*
X148087650Y-111881658D01*
X148070101Y-111853438D01*
X147982436Y-111765773D01*
X147936919Y-111744548D01*
X147888770Y-111757449D01*
X147860105Y-111798389D01*
X147859475Y-111817598D01*
X147859438Y-111817922D01*
X147858524Y-111822519D01*
X147857205Y-111824023D01*
X147855243Y-111823633D01*
X147854600Y-111822519D01*
X147846847Y-111783553D01*
X147822792Y-111747550D01*
X147734683Y-111659441D01*
X147698680Y-111635386D01*
X147659713Y-111627633D01*
X147658209Y-111626314D01*
X147658599Y-111624352D01*
X147659713Y-111623709D01*
X147669012Y-111621859D01*
X147669442Y-111620594D01*
X147670457Y-111620121D01*
X147700144Y-111615551D01*
X147733009Y-111578074D01*
X147734097Y-111528105D01*
X147716548Y-111499885D01*
X147628883Y-111412220D01*
X147583366Y-111390995D01*
X147535217Y-111403896D01*
X147506552Y-111444836D01*
X147505922Y-111464045D01*
X147505885Y-111464369D01*
X147504971Y-111468966D01*
X147503652Y-111470470D01*
X147501690Y-111470080D01*
X147501047Y-111468966D01*
X147493294Y-111430000D01*
X147469239Y-111393997D01*
X147381130Y-111305888D01*
X147345127Y-111281833D01*
X147306160Y-111274080D01*
X147304656Y-111272761D01*
X147305046Y-111270799D01*
X147306160Y-111270156D01*
X147315459Y-111268306D01*
X147315889Y-111267041D01*
X147316904Y-111266568D01*
X147346591Y-111261998D01*
X147379456Y-111224521D01*
X147380544Y-111174552D01*
X147362873Y-111146135D01*
X147362807Y-111144136D01*
X147364506Y-111143080D01*
X147365985Y-111143665D01*
G37*
G36*
X153430254Y-111851668D02*
G01*
X153430135Y-111853031D01*
X153408761Y-111898867D01*
X153421662Y-111947016D01*
X153462602Y-111975681D01*
X153481815Y-111976311D01*
X153482140Y-111976348D01*
X153486735Y-111977262D01*
X153488239Y-111978581D01*
X153487849Y-111980543D01*
X153486735Y-111981186D01*
X153447767Y-111988939D01*
X153411764Y-112012994D01*
X153323655Y-112101103D01*
X153299600Y-112137106D01*
X153291847Y-112176073D01*
X153290528Y-112177577D01*
X153288566Y-112177187D01*
X153287923Y-112176073D01*
X153286073Y-112166773D01*
X153284809Y-112166344D01*
X153284336Y-112165329D01*
X153279764Y-112135639D01*
X153242286Y-112102776D01*
X153192317Y-112101689D01*
X153163903Y-112119359D01*
X153161904Y-112119425D01*
X153160848Y-112117727D01*
X153161433Y-112116247D01*
X153426908Y-111850772D01*
X153428840Y-111850254D01*
X153430254Y-111851668D01*
G37*
G36*
X154490913Y-110791009D02*
G01*
X154490794Y-110792372D01*
X154469421Y-110838209D01*
X154482323Y-110886357D01*
X154523262Y-110915023D01*
X154542475Y-110915652D01*
X154542800Y-110915689D01*
X154547393Y-110916602D01*
X154548897Y-110917921D01*
X154548507Y-110919883D01*
X154547393Y-110920526D01*
X154508427Y-110928279D01*
X154472424Y-110952334D01*
X154384315Y-111040443D01*
X154360260Y-111076446D01*
X154352507Y-111115413D01*
X154351188Y-111116917D01*
X154349226Y-111116527D01*
X154348583Y-111115413D01*
X154346733Y-111106113D01*
X154345469Y-111105684D01*
X154344996Y-111104669D01*
X154340429Y-111074987D01*
X154302954Y-111042119D01*
X154252985Y-111041026D01*
X154224760Y-111058577D01*
X154137092Y-111146245D01*
X154115867Y-111191762D01*
X154128768Y-111239911D01*
X154169708Y-111268576D01*
X154188919Y-111269205D01*
X154189244Y-111269242D01*
X154193840Y-111270156D01*
X154195344Y-111271475D01*
X154194954Y-111273437D01*
X154193840Y-111274080D01*
X154154873Y-111281833D01*
X154118870Y-111305888D01*
X154030761Y-111393997D01*
X154006706Y-111430000D01*
X153998953Y-111468967D01*
X153997634Y-111470471D01*
X153995672Y-111470081D01*
X153995029Y-111468967D01*
X153993179Y-111459667D01*
X153991915Y-111459238D01*
X153991442Y-111458223D01*
X153986875Y-111428541D01*
X153949400Y-111395673D01*
X153899431Y-111394580D01*
X153871206Y-111412131D01*
X153783539Y-111499798D01*
X153762314Y-111545315D01*
X153775215Y-111593464D01*
X153816155Y-111622129D01*
X153835366Y-111622758D01*
X153835691Y-111622795D01*
X153840287Y-111623709D01*
X153841791Y-111625028D01*
X153841401Y-111626990D01*
X153840287Y-111627633D01*
X153801320Y-111635386D01*
X153765317Y-111659441D01*
X153677208Y-111747550D01*
X153653153Y-111783553D01*
X153645400Y-111822520D01*
X153644081Y-111824024D01*
X153642119Y-111823634D01*
X153641476Y-111822520D01*
X153639626Y-111813220D01*
X153638362Y-111812791D01*
X153637889Y-111811776D01*
X153633317Y-111782086D01*
X153595839Y-111749223D01*
X153545870Y-111748136D01*
X153517456Y-111765806D01*
X153515457Y-111765872D01*
X153514401Y-111764174D01*
X153514986Y-111762694D01*
X154487567Y-110790113D01*
X154489499Y-110789595D01*
X154490913Y-110791009D01*
G37*
G36*
X146797221Y-110237026D02*
G01*
X146797864Y-110238140D01*
X146799714Y-110247441D01*
X146800976Y-110247869D01*
X146801450Y-110248884D01*
X146806018Y-110278569D01*
X146843495Y-110311436D01*
X146893464Y-110312527D01*
X146921881Y-110294857D01*
X146923880Y-110294791D01*
X146924936Y-110296490D01*
X146924351Y-110297969D01*
X146756401Y-110465919D01*
X146745893Y-110481645D01*
X146742243Y-110500000D01*
X146745893Y-110518355D01*
X146756401Y-110534081D01*
X147324993Y-111102673D01*
X147325511Y-111104605D01*
X147324097Y-111106019D01*
X147322165Y-111105501D01*
X147275329Y-111058666D01*
X147229811Y-111037442D01*
X147181663Y-111050344D01*
X147152997Y-111091283D01*
X147152368Y-111110492D01*
X147152331Y-111110817D01*
X147151417Y-111115413D01*
X147150098Y-111116917D01*
X147148136Y-111116527D01*
X147147493Y-111115413D01*
X147139740Y-111076446D01*
X147115685Y-111040443D01*
X147027576Y-110952334D01*
X146991573Y-110928279D01*
X146952606Y-110920526D01*
X146951102Y-110919207D01*
X146951492Y-110917245D01*
X146952606Y-110916602D01*
X146961905Y-110914752D01*
X146962335Y-110913487D01*
X146963350Y-110913014D01*
X146993035Y-110908445D01*
X147025900Y-110870968D01*
X147026989Y-110820999D01*
X147009440Y-110792778D01*
X146921776Y-110705114D01*
X146876259Y-110683889D01*
X146828110Y-110696790D01*
X146799445Y-110737730D01*
X146798815Y-110756937D01*
X146798778Y-110757261D01*
X146797864Y-110761859D01*
X146796545Y-110763363D01*
X146794583Y-110762973D01*
X146793940Y-110761859D01*
X146786187Y-110722893D01*
X146762132Y-110686890D01*
X146674023Y-110598781D01*
X146640819Y-110576596D01*
X146639934Y-110574802D01*
X146641045Y-110573139D01*
X146642320Y-110572971D01*
X146651256Y-110574748D01*
X146700893Y-110567109D01*
X146733808Y-110529576D01*
X146735158Y-110514144D01*
X146736305Y-110512505D01*
X146737166Y-110512401D01*
X146737370Y-110511372D01*
X146736151Y-110503444D01*
X146736136Y-110502966D01*
X146737384Y-110488696D01*
X146737189Y-110487714D01*
X146735883Y-110487974D01*
X146733989Y-110487331D01*
X146733516Y-110486316D01*
X146729735Y-110461735D01*
X146692205Y-110428817D01*
X146651324Y-110425238D01*
X146642320Y-110427029D01*
X146640426Y-110426386D01*
X146640036Y-110424424D01*
X146640819Y-110423404D01*
X146674023Y-110401219D01*
X146762132Y-110313110D01*
X146786187Y-110277107D01*
X146793940Y-110238140D01*
X146795259Y-110236636D01*
X146797221Y-110237026D01*
G37*
G36*
X154351864Y-109883473D02*
G01*
X154352507Y-109884587D01*
X154360260Y-109923554D01*
X154384315Y-109959557D01*
X154472424Y-110047666D01*
X154508427Y-110071721D01*
X154547394Y-110079474D01*
X154548898Y-110080793D01*
X154548508Y-110082755D01*
X154547394Y-110083398D01*
X154538095Y-110085248D01*
X154537665Y-110086513D01*
X154536650Y-110086986D01*
X154506965Y-110091555D01*
X154474100Y-110129032D01*
X154473011Y-110179001D01*
X154490560Y-110207222D01*
X154578224Y-110294886D01*
X154623741Y-110316111D01*
X154671890Y-110303210D01*
X154700555Y-110262270D01*
X154701185Y-110243063D01*
X154701222Y-110242739D01*
X154702136Y-110238141D01*
X154703455Y-110236637D01*
X154705417Y-110237027D01*
X154706060Y-110238141D01*
X154713813Y-110277107D01*
X154737868Y-110313110D01*
X154825977Y-110401219D01*
X154859181Y-110423404D01*
X154860066Y-110425198D01*
X154858955Y-110426861D01*
X154857680Y-110427029D01*
X154848744Y-110425252D01*
X154799107Y-110432891D01*
X154766192Y-110470424D01*
X154764842Y-110485856D01*
X154763695Y-110487495D01*
X154762834Y-110487599D01*
X154762630Y-110488628D01*
X154763849Y-110496556D01*
X154763864Y-110497034D01*
X154762616Y-110511304D01*
X154762811Y-110512286D01*
X154764117Y-110512026D01*
X154766011Y-110512669D01*
X154766484Y-110513684D01*
X154770265Y-110538265D01*
X154807795Y-110571183D01*
X154848676Y-110574762D01*
X154857680Y-110572971D01*
X154859574Y-110573614D01*
X154859964Y-110575576D01*
X154859181Y-110576596D01*
X154825977Y-110598781D01*
X154737868Y-110686890D01*
X154713813Y-110722893D01*
X154706060Y-110761860D01*
X154704741Y-110763364D01*
X154702779Y-110762974D01*
X154702136Y-110761860D01*
X154700286Y-110752559D01*
X154699024Y-110752131D01*
X154698550Y-110751116D01*
X154693982Y-110721431D01*
X154656505Y-110688564D01*
X154606536Y-110687473D01*
X154578119Y-110705143D01*
X154576120Y-110705209D01*
X154575064Y-110703510D01*
X154575649Y-110702031D01*
X154743599Y-110534081D01*
X154754107Y-110518355D01*
X154757757Y-110500000D01*
X154754107Y-110481645D01*
X154743599Y-110465919D01*
X154175027Y-109897347D01*
X154174509Y-109895415D01*
X154175923Y-109894001D01*
X154177855Y-109894519D01*
X154224671Y-109941334D01*
X154270189Y-109962558D01*
X154318337Y-109949656D01*
X154347003Y-109908717D01*
X154347632Y-109889508D01*
X154347669Y-109889183D01*
X154348583Y-109884587D01*
X154349902Y-109883083D01*
X154351864Y-109883473D01*
G37*
G36*
X147857881Y-109176366D02*
G01*
X147858524Y-109177480D01*
X147860374Y-109186780D01*
X147861638Y-109187209D01*
X147862111Y-109188224D01*
X147866683Y-109217914D01*
X147904161Y-109250777D01*
X147954130Y-109251864D01*
X147982544Y-109234194D01*
X147984543Y-109234128D01*
X147985599Y-109235826D01*
X147985014Y-109237306D01*
X147012433Y-110209887D01*
X147010501Y-110210405D01*
X147009087Y-110208991D01*
X147009206Y-110207628D01*
X147030579Y-110161791D01*
X147017677Y-110113643D01*
X146976738Y-110084977D01*
X146957525Y-110084348D01*
X146957200Y-110084311D01*
X146952607Y-110083398D01*
X146951103Y-110082079D01*
X146951493Y-110080117D01*
X146952607Y-110079474D01*
X146991573Y-110071721D01*
X147027576Y-110047666D01*
X147115685Y-109959557D01*
X147139740Y-109923554D01*
X147147493Y-109884587D01*
X147148812Y-109883083D01*
X147150774Y-109883473D01*
X147151417Y-109884587D01*
X147153267Y-109893887D01*
X147154531Y-109894316D01*
X147155004Y-109895331D01*
X147159571Y-109925013D01*
X147197046Y-109957881D01*
X147247015Y-109958974D01*
X147275240Y-109941423D01*
X147362908Y-109853755D01*
X147384133Y-109808238D01*
X147371232Y-109760089D01*
X147330292Y-109731424D01*
X147311081Y-109730795D01*
X147310756Y-109730758D01*
X147306160Y-109729844D01*
X147304656Y-109728525D01*
X147305046Y-109726563D01*
X147306160Y-109725920D01*
X147345127Y-109718167D01*
X147381130Y-109694112D01*
X147469239Y-109606003D01*
X147493294Y-109570000D01*
X147501047Y-109531033D01*
X147502366Y-109529529D01*
X147504328Y-109529919D01*
X147504971Y-109531033D01*
X147506821Y-109540333D01*
X147508085Y-109540762D01*
X147508558Y-109541777D01*
X147513125Y-109571459D01*
X147550600Y-109604327D01*
X147600569Y-109605420D01*
X147628794Y-109587869D01*
X147716461Y-109500202D01*
X147737686Y-109454685D01*
X147724785Y-109406536D01*
X147683845Y-109377871D01*
X147664634Y-109377242D01*
X147664309Y-109377205D01*
X147659713Y-109376291D01*
X147658209Y-109374972D01*
X147658599Y-109373010D01*
X147659713Y-109372367D01*
X147698680Y-109364614D01*
X147734683Y-109340559D01*
X147822792Y-109252450D01*
X147846847Y-109216447D01*
X147854600Y-109177480D01*
X147855919Y-109175976D01*
X147857881Y-109176366D01*
G37*
G36*
X152584097Y-108115705D02*
G01*
X152584740Y-108116819D01*
X152592493Y-108155787D01*
X152616548Y-108191790D01*
X152704657Y-108279899D01*
X152740660Y-108303954D01*
X152779627Y-108311707D01*
X152781131Y-108313026D01*
X152780741Y-108314988D01*
X152779627Y-108315631D01*
X152770328Y-108317481D01*
X152769898Y-108318746D01*
X152768883Y-108319219D01*
X152739196Y-108323789D01*
X152706331Y-108361266D01*
X152705243Y-108411235D01*
X152722792Y-108439455D01*
X152810457Y-108527120D01*
X152855974Y-108548345D01*
X152904123Y-108535444D01*
X152932788Y-108494504D01*
X152933418Y-108475295D01*
X152933455Y-108474971D01*
X152934369Y-108470374D01*
X152935688Y-108468870D01*
X152937650Y-108469260D01*
X152938293Y-108470374D01*
X152946046Y-108509340D01*
X152970101Y-108545343D01*
X153058210Y-108633452D01*
X153094213Y-108657507D01*
X153133180Y-108665260D01*
X153134684Y-108666579D01*
X153134294Y-108668541D01*
X153133180Y-108669184D01*
X153123881Y-108671034D01*
X153123451Y-108672299D01*
X153122436Y-108672772D01*
X153092749Y-108677342D01*
X153059884Y-108714819D01*
X153058796Y-108764788D01*
X153076345Y-108793008D01*
X153164011Y-108880674D01*
X153209528Y-108901899D01*
X153257677Y-108888998D01*
X153286342Y-108848058D01*
X153286972Y-108828849D01*
X153287009Y-108828525D01*
X153287923Y-108823928D01*
X153289242Y-108822424D01*
X153291204Y-108822814D01*
X153291847Y-108823928D01*
X153299600Y-108862894D01*
X153323655Y-108898897D01*
X153411764Y-108987006D01*
X153447767Y-109011061D01*
X153486734Y-109018814D01*
X153488238Y-109020133D01*
X153487848Y-109022095D01*
X153486734Y-109022738D01*
X153477435Y-109024588D01*
X153477005Y-109025853D01*
X153475990Y-109026326D01*
X153446303Y-109030896D01*
X153413438Y-109068373D01*
X153412350Y-109118342D01*
X153429899Y-109146562D01*
X153517564Y-109234227D01*
X153563081Y-109255452D01*
X153611230Y-109242551D01*
X153639895Y-109201611D01*
X153640525Y-109182402D01*
X153640562Y-109182078D01*
X153641476Y-109177481D01*
X153642795Y-109175977D01*
X153644757Y-109176367D01*
X153645400Y-109177481D01*
X153653153Y-109216447D01*
X153677208Y-109252450D01*
X153765317Y-109340559D01*
X153801320Y-109364614D01*
X153840287Y-109372367D01*
X153841791Y-109373686D01*
X153841401Y-109375648D01*
X153840287Y-109376291D01*
X153830988Y-109378141D01*
X153830558Y-109379406D01*
X153829543Y-109379879D01*
X153799856Y-109384449D01*
X153766991Y-109421926D01*
X153765903Y-109471895D01*
X153783452Y-109500115D01*
X153871117Y-109587780D01*
X153916634Y-109609005D01*
X153964783Y-109596104D01*
X153993448Y-109555164D01*
X153994078Y-109535955D01*
X153994115Y-109535631D01*
X153995029Y-109531034D01*
X153996348Y-109529530D01*
X153998310Y-109529920D01*
X153998953Y-109531034D01*
X154006706Y-109570000D01*
X154030761Y-109606003D01*
X154118870Y-109694112D01*
X154154873Y-109718167D01*
X154193840Y-109725920D01*
X154195344Y-109727239D01*
X154194954Y-109729201D01*
X154193840Y-109729844D01*
X154184541Y-109731694D01*
X154184111Y-109732959D01*
X154183096Y-109733432D01*
X154153409Y-109738002D01*
X154120544Y-109775479D01*
X154119456Y-109825448D01*
X154137127Y-109853865D01*
X154137193Y-109855864D01*
X154135494Y-109856920D01*
X154134015Y-109856335D01*
X152454326Y-108176646D01*
X152453808Y-108174714D01*
X152455222Y-108173300D01*
X152456585Y-108173419D01*
X152502421Y-108194793D01*
X152550570Y-108181892D01*
X152579235Y-108140952D01*
X152579865Y-108121739D01*
X152579902Y-108121414D01*
X152580816Y-108116819D01*
X152582135Y-108115315D01*
X152584097Y-108115705D01*
G37*
G36*
X148211434Y-108822813D02*
G01*
X148212077Y-108823927D01*
X148213927Y-108833227D01*
X148215191Y-108833656D01*
X148215664Y-108834671D01*
X148220236Y-108864361D01*
X148257714Y-108897224D01*
X148307683Y-108898311D01*
X148336097Y-108880641D01*
X148338096Y-108880575D01*
X148339152Y-108882273D01*
X148338567Y-108883753D01*
X148073092Y-109149228D01*
X148071160Y-109149746D01*
X148069746Y-109148332D01*
X148069865Y-109146969D01*
X148091239Y-109101133D01*
X148078338Y-109052984D01*
X148037398Y-109024319D01*
X148018185Y-109023689D01*
X148017860Y-109023652D01*
X148013265Y-109022738D01*
X148011761Y-109021419D01*
X148012151Y-109019457D01*
X148013265Y-109018814D01*
X148052233Y-109011061D01*
X148088236Y-108987006D01*
X148176345Y-108898897D01*
X148200400Y-108862894D01*
X148208153Y-108823927D01*
X148209472Y-108822423D01*
X148211434Y-108822813D01*
G37*
G36*
X149979201Y-107055046D02*
G01*
X149979844Y-107056160D01*
X149981694Y-107065459D01*
X149982959Y-107065889D01*
X149983432Y-107066904D01*
X149988002Y-107096591D01*
X150025479Y-107129456D01*
X150075448Y-107130544D01*
X150103865Y-107112873D01*
X150105864Y-107112807D01*
X150106920Y-107114506D01*
X150106335Y-107115985D01*
X148426646Y-108795674D01*
X148424714Y-108796192D01*
X148423300Y-108794778D01*
X148423419Y-108793415D01*
X148444793Y-108747579D01*
X148431892Y-108699430D01*
X148390952Y-108670765D01*
X148371739Y-108670135D01*
X148371414Y-108670098D01*
X148366819Y-108669184D01*
X148365315Y-108667865D01*
X148365705Y-108665903D01*
X148366819Y-108665260D01*
X148405787Y-108657507D01*
X148441790Y-108633452D01*
X148529899Y-108545343D01*
X148553954Y-108509340D01*
X148561707Y-108470373D01*
X148563026Y-108468869D01*
X148564988Y-108469259D01*
X148565631Y-108470373D01*
X148567481Y-108479672D01*
X148568746Y-108480102D01*
X148569219Y-108481117D01*
X148573789Y-108510804D01*
X148611266Y-108543669D01*
X148661235Y-108544757D01*
X148689455Y-108527208D01*
X148777120Y-108439543D01*
X148798345Y-108394026D01*
X148785444Y-108345877D01*
X148744504Y-108317212D01*
X148725295Y-108316582D01*
X148724971Y-108316545D01*
X148720374Y-108315631D01*
X148718870Y-108314312D01*
X148719260Y-108312350D01*
X148720374Y-108311707D01*
X148759340Y-108303954D01*
X148795343Y-108279899D01*
X148883452Y-108191790D01*
X148907507Y-108155787D01*
X148915260Y-108116820D01*
X148916579Y-108115316D01*
X148918541Y-108115706D01*
X148919184Y-108116820D01*
X148921034Y-108126119D01*
X148922299Y-108126549D01*
X148922772Y-108127564D01*
X148927342Y-108157251D01*
X148964819Y-108190116D01*
X149014788Y-108191204D01*
X149043008Y-108173655D01*
X149130674Y-108085989D01*
X149151899Y-108040472D01*
X149138998Y-107992323D01*
X149098058Y-107963658D01*
X149078849Y-107963028D01*
X149078525Y-107962991D01*
X149073928Y-107962077D01*
X149072424Y-107960758D01*
X149072814Y-107958796D01*
X149073928Y-107958153D01*
X149112894Y-107950400D01*
X149148897Y-107926345D01*
X149237006Y-107838236D01*
X149261061Y-107802233D01*
X149268814Y-107763266D01*
X149270133Y-107761762D01*
X149272095Y-107762152D01*
X149272738Y-107763266D01*
X149274588Y-107772565D01*
X149275853Y-107772995D01*
X149276326Y-107774010D01*
X149280896Y-107803697D01*
X149318373Y-107836562D01*
X149368342Y-107837650D01*
X149396562Y-107820101D01*
X149484227Y-107732436D01*
X149505452Y-107686919D01*
X149492551Y-107638770D01*
X149451611Y-107610105D01*
X149432402Y-107609475D01*
X149432078Y-107609438D01*
X149427481Y-107608524D01*
X149425977Y-107607205D01*
X149426367Y-107605243D01*
X149427481Y-107604600D01*
X149466447Y-107596847D01*
X149502450Y-107572792D01*
X149590559Y-107484683D01*
X149614614Y-107448680D01*
X149622367Y-107409713D01*
X149623686Y-107408209D01*
X149625648Y-107408599D01*
X149626291Y-107409713D01*
X149628141Y-107419012D01*
X149629406Y-107419442D01*
X149629879Y-107420457D01*
X149634449Y-107450144D01*
X149671926Y-107483009D01*
X149721895Y-107484097D01*
X149750115Y-107466548D01*
X149837780Y-107378883D01*
X149859005Y-107333366D01*
X149846104Y-107285217D01*
X149805164Y-107256552D01*
X149785955Y-107255922D01*
X149785631Y-107255885D01*
X149781034Y-107254971D01*
X149779530Y-107253652D01*
X149779920Y-107251690D01*
X149781034Y-107251047D01*
X149820000Y-107243294D01*
X149856003Y-107219239D01*
X149944112Y-107131130D01*
X149968167Y-107095127D01*
X149975920Y-107056160D01*
X149977239Y-107054656D01*
X149979201Y-107055046D01*
G37*
G36*
X152230543Y-107762151D02*
G01*
X152231186Y-107763265D01*
X152238939Y-107802233D01*
X152262994Y-107838236D01*
X152351103Y-107926345D01*
X152387106Y-107950400D01*
X152426073Y-107958153D01*
X152427577Y-107959472D01*
X152427187Y-107961434D01*
X152426073Y-107962077D01*
X152416773Y-107963927D01*
X152416344Y-107965191D01*
X152415329Y-107965664D01*
X152385639Y-107970236D01*
X152352776Y-108007714D01*
X152351689Y-108057683D01*
X152369359Y-108086097D01*
X152369425Y-108088096D01*
X152367727Y-108089152D01*
X152366247Y-108088567D01*
X152100772Y-107823092D01*
X152100254Y-107821160D01*
X152101668Y-107819746D01*
X152103031Y-107819865D01*
X152148867Y-107841239D01*
X152197016Y-107828338D01*
X152225681Y-107787398D01*
X152226311Y-107768185D01*
X152226348Y-107767860D01*
X152227262Y-107763265D01*
X152228581Y-107761761D01*
X152230543Y-107762151D01*
G37*
G36*
X151169883Y-106701493D02*
G01*
X151170526Y-106702607D01*
X151178279Y-106741573D01*
X151202334Y-106777576D01*
X151290443Y-106865685D01*
X151326446Y-106889740D01*
X151365413Y-106897493D01*
X151366917Y-106898812D01*
X151366527Y-106900774D01*
X151365413Y-106901417D01*
X151356113Y-106903267D01*
X151355684Y-106904531D01*
X151354669Y-106905004D01*
X151324987Y-106909571D01*
X151292119Y-106947046D01*
X151291026Y-106997015D01*
X151308577Y-107025240D01*
X151396245Y-107112908D01*
X151441762Y-107134133D01*
X151489911Y-107121232D01*
X151518576Y-107080292D01*
X151519205Y-107061081D01*
X151519242Y-107060756D01*
X151520156Y-107056160D01*
X151521475Y-107054656D01*
X151523437Y-107055046D01*
X151524080Y-107056160D01*
X151531833Y-107095127D01*
X151555888Y-107131130D01*
X151643997Y-107219239D01*
X151680000Y-107243294D01*
X151718967Y-107251047D01*
X151720471Y-107252366D01*
X151720081Y-107254328D01*
X151718967Y-107254971D01*
X151709667Y-107256821D01*
X151709238Y-107258085D01*
X151708223Y-107258558D01*
X151678541Y-107263125D01*
X151645673Y-107300600D01*
X151644580Y-107350569D01*
X151662131Y-107378794D01*
X151749798Y-107466461D01*
X151795315Y-107487686D01*
X151843464Y-107474785D01*
X151872129Y-107433845D01*
X151872758Y-107414634D01*
X151872795Y-107414309D01*
X151873709Y-107409713D01*
X151875028Y-107408209D01*
X151876990Y-107408599D01*
X151877633Y-107409713D01*
X151885386Y-107448680D01*
X151909441Y-107484683D01*
X151997550Y-107572792D01*
X152033553Y-107596847D01*
X152072520Y-107604600D01*
X152074024Y-107605919D01*
X152073634Y-107607881D01*
X152072520Y-107608524D01*
X152063220Y-107610374D01*
X152062791Y-107611638D01*
X152061776Y-107612111D01*
X152032086Y-107616683D01*
X151999223Y-107654161D01*
X151998136Y-107704130D01*
X152015806Y-107732544D01*
X152015872Y-107734543D01*
X152014174Y-107735599D01*
X152012694Y-107735014D01*
X151040113Y-106762433D01*
X151039595Y-106760501D01*
X151041009Y-106759087D01*
X151042372Y-106759206D01*
X151088209Y-106780579D01*
X151136357Y-106767677D01*
X151165023Y-106726738D01*
X151165652Y-106707525D01*
X151165689Y-106707200D01*
X151166602Y-106702607D01*
X151167921Y-106701103D01*
X151169883Y-106701493D01*
G37*
G36*
X150676861Y-106391045D02*
G01*
X150677029Y-106392320D01*
X150675252Y-106401256D01*
X150682891Y-106450893D01*
X150720424Y-106483808D01*
X150735856Y-106485158D01*
X150737495Y-106486305D01*
X150737599Y-106487166D01*
X150738628Y-106487370D01*
X150746556Y-106486151D01*
X150747034Y-106486136D01*
X150761304Y-106487384D01*
X150762286Y-106487189D01*
X150762026Y-106485883D01*
X150762669Y-106483989D01*
X150763684Y-106483516D01*
X150788265Y-106479735D01*
X150821183Y-106442205D01*
X150824762Y-106401324D01*
X150822971Y-106392320D01*
X150823614Y-106390426D01*
X150825576Y-106390036D01*
X150826596Y-106390819D01*
X150848781Y-106424023D01*
X150936890Y-106512132D01*
X150972893Y-106536187D01*
X151011860Y-106543940D01*
X151013364Y-106545259D01*
X151012974Y-106547221D01*
X151011860Y-106547864D01*
X151002559Y-106549714D01*
X151002131Y-106550976D01*
X151001116Y-106551450D01*
X150971431Y-106556018D01*
X150938564Y-106593495D01*
X150937473Y-106643464D01*
X150955143Y-106671881D01*
X150955209Y-106673880D01*
X150953510Y-106674936D01*
X150952031Y-106674351D01*
X150784081Y-106506401D01*
X150768355Y-106495893D01*
X150750000Y-106492243D01*
X150731645Y-106495893D01*
X150715919Y-106506401D01*
X150141384Y-107080936D01*
X150139452Y-107081454D01*
X150138038Y-107080040D01*
X150138556Y-107078108D01*
X150191334Y-107025329D01*
X150212558Y-106979811D01*
X150199656Y-106931663D01*
X150158717Y-106902997D01*
X150139508Y-106902368D01*
X150139183Y-106902331D01*
X150134587Y-106901417D01*
X150133083Y-106900098D01*
X150133473Y-106898136D01*
X150134587Y-106897493D01*
X150173554Y-106889740D01*
X150209557Y-106865685D01*
X150297666Y-106777576D01*
X150321721Y-106741573D01*
X150329474Y-106702606D01*
X150330793Y-106701102D01*
X150332755Y-106701492D01*
X150333398Y-106702606D01*
X150335248Y-106711905D01*
X150336513Y-106712335D01*
X150336986Y-106713350D01*
X150341555Y-106743035D01*
X150379032Y-106775900D01*
X150429001Y-106776989D01*
X150457222Y-106759440D01*
X150544886Y-106671776D01*
X150566111Y-106626259D01*
X150553210Y-106578110D01*
X150512270Y-106549445D01*
X150493063Y-106548815D01*
X150492739Y-106548778D01*
X150488141Y-106547864D01*
X150486637Y-106546545D01*
X150487027Y-106544583D01*
X150488141Y-106543940D01*
X150527107Y-106536187D01*
X150563110Y-106512132D01*
X150651219Y-106424023D01*
X150673404Y-106390819D01*
X150675198Y-106389934D01*
X150676861Y-106391045D01*
G37*
M02*
