M48
; DRILL file {KiCad (6.0.1)} date Mon Mar 28 13:47:26 2022
; FORMAT={-:-/ absolute / inch / decimal}
; #@! TF.CreationDate,2022-03-28T13:47:26+03:00
; #@! TF.GenerationSoftware,Kicad,Pcbnew,(6.0.1)
; #@! TF.FileFunction,Plated,1,4,PTH
FMAT,2
INCH
; #@! TA.AperFunction,Plated,PTH,ViaDrill
T1C0.0079
; #@! TA.AperFunction,Plated,PTH,ViaDrill
T2C0.0118
; #@! TA.AperFunction,Plated,PTH,ComponentDrill
T3C0.0118
; #@! TA.AperFunction,Plated,PTH,ComponentDrill
T4C0.0256
; #@! TA.AperFunction,Plated,PTH,ComponentDrill
T5C0.0315
; #@! TA.AperFunction,Plated,PTH,ComponentDrill
T6C0.0354
; #@! TA.AperFunction,Plated,PTH,ComponentDrill
T7C0.1260
%
G90
G05
T1
X5.0866Y-4.8031
X5.1181Y-3.9055
X5.1181Y-3.937
X5.1181Y-3.9685
X5.1772Y-3.2579
X5.2656Y-4.8033
X5.378Y-4.4646
X5.4094Y-3.8031
X5.4173Y-4.5512
X5.4252Y-4.748
X5.5197Y-4.2992
X5.5197Y-4.3307
X5.5669Y-4.6535
X5.5748Y-3.9053
X5.5748Y-4.2992
X5.6102Y-3.2677
X5.614Y-4.0079
X5.622Y-4.1575
X5.622Y-4.3386
X5.6496Y-3.2677
X5.6535Y-4.3465
X5.6535Y-4.7874
X5.689Y-3.2677
X5.7008Y-4.6299
X5.7008Y-4.6951
X5.7087Y-4.5827
X5.7244Y-4.0394
X5.7244Y-4.2126
X5.7244Y-4.4567
X5.7283Y-3.2677
X5.732Y-4.4879
X5.748Y-4.3465
X5.7686Y-3.9676
X5.7689Y-4.249
X5.7835Y-4.0669
X5.802Y-4.1043
X5.8031Y-4.1969
X5.8031Y-4.5372
X5.8071Y-4.1614
X5.8084Y-4.3491
X5.815Y-3.9528
X5.8237Y-4.5993
X5.8425Y-4.5433
X5.8465Y-4.1399
X5.8949Y-4.1071
X5.9055Y-3.7795
X5.9134Y-3.6378
X5.9154Y-4.0484
X5.935Y-4.4757
X5.937Y-3.6142
X5.9409Y-4.1378
X5.9418Y-4.1034
X5.9449Y-3.7008
X5.9528Y-3.3937
X5.9528Y-4.6921
X5.9583Y-3.4433
X5.9762Y-4.2675
X5.9843Y-4.1378
X5.9882Y-3.2638
X6.0Y-4.8583
X6.0157Y-3.2638
X6.0157Y-4.5512
X6.0208Y-4.5197
X6.0302Y-4.8106
X6.0315Y-4.1969
X6.0398Y-4.4965
X6.0512Y-4.3504
X6.0551Y-3.874
X6.063Y-4.7008
X6.0866Y-4.1417
X6.1024Y-4.7008
X6.126Y-4.5669
X6.1339Y-4.6378
X6.1417Y-4.4331
X6.1593Y-4.4961
X6.1891Y-4.4099
X6.1969Y-4.4961
X6.2036Y-4.3145
X6.2077Y-4.554
X6.2283Y-4.6299
X6.2337Y-4.6605
X6.2362Y-4.4961
X6.2362Y-4.5984
X6.2488Y-4.4164
X6.2557Y-4.2126
X6.2598Y-4.0945
X6.263Y-3.9764
X6.2795Y-4.497
X6.2813Y-4.3228
X6.3071Y-4.7402
X6.3307Y-4.4724
X6.3465Y-3.9606
X6.378Y-4.8346
X6.4016Y-4.2913
X6.4803Y-4.2913
X6.5197Y-4.7717
X6.5197Y-4.8346
X6.5551Y-3.7835
X6.5551Y-4.1299
T2
X5.1732Y-4.0551
X5.1732Y-4.0866
X5.1732Y-4.126
X5.1732Y-4.1654
X5.2283Y-4.1181
X5.2756Y-4.1181
X5.2835Y-4.1732
X5.2835Y-4.2047
X5.2835Y-4.2362
X5.5276Y-3.3977
X5.5276Y-4.2598
X5.5354Y-3.2756
X5.5709Y-3.2756
X5.5748Y-3.3977
X5.5827Y-3.5748
X5.622Y-3.3977
X5.8268Y-4.0157
X5.9134Y-4.6929
X5.937Y-4.5433
X6.0149Y-4.6052
X6.0551Y-3.6378
X6.0551Y-4.5354
X6.1024Y-3.6378
X6.2913Y-3.5906
X6.2913Y-3.6378
X6.4567Y-4.4173
X6.5039Y-4.5039
T3
X5.5374Y-3.6594
X5.5374Y-3.7067
X5.5374Y-3.7579
X5.5374Y-3.8012
X5.5846Y-3.6594
X5.5846Y-3.7067
X5.5846Y-3.7579
X5.5846Y-3.8012
T4
X5.8014Y-4.6366
X5.8014Y-4.6866
X5.8014Y-4.7366
X5.8014Y-4.7866
X5.8014Y-4.8366
X5.8514Y-4.6366
X5.8514Y-4.6866
X5.8514Y-4.7366
X5.8514Y-4.7866
X5.8514Y-4.8366
T5
X5.0Y-4.3209
X5.0Y-4.3996
X5.0Y-4.4783
X5.3642Y-4.8425
X5.4429Y-4.8425
X5.5217Y-4.8425
X5.6004Y-4.8425
X6.0728Y-4.8425
X6.1516Y-4.8425
X6.2303Y-4.8425
X6.3091Y-4.8425
X6.6535Y-3.3563
X6.6535Y-3.435
X6.6535Y-3.5138
X6.6535Y-3.7205
X6.6535Y-3.7992
X6.6535Y-3.878
X6.6535Y-4.065
X6.6535Y-4.1437
X6.6535Y-4.2224
X6.6535Y-4.4685
X6.6535Y-4.5472
X6.6535Y-4.626
T7
X5.2362Y-3.4252
X5.2362Y-4.6063
X6.4173Y-3.4252
X6.4173Y-4.6063
T6
G00X5.9535Y-3.224
M15
G01X5.9535Y-3.2043
M16
G05
G00X6.1764Y-3.224
M15
G01X6.1764Y-3.2043
M16
G05
T0
M30
